<svg id="e168158a-f096-4869-9cc5-77425bdacbaa" data-name="Calque 1" xmlns="http://www.w3.org/2000/svg" width="21.4886mm" height="3.6196mm" viewBox="0 0 60.9124 10.2604">
  <title>border_top</title>
  <path d="M1016.6934-281.41c0.0152-.0573.0267-0.1141,0.0451-0.1686a1.5563,1.5563,0,0,1,1.2352-1.101,1.592,1.592,0,0,1,1.8622,1.2246,1.4816,1.4816,0,0,1-.0038.704,0.8044,0.8044,0,0,1-.6648.5876,0.8074,0.8074,0,0,1-.9095-0.6522,0.9555,0.9555,0,0,1,.0041-0.3267,0.78,0.78,0,0,0-.5738-0.864,0.7825,0.7825,0,0,0-.9634.587l-0.0023.0132c0.056,0.0148.1113,0.0277,0.1655,0.0441a1.6019,1.6019,0,0,1,1.1073,1.2377,1.6032,1.6032,0,0,1-1.23,1.8615,1.493,1.493,0,0,1-.7015-0.0043,0.8049,0.8049,0,0,1-.5881-0.6643,0.8068,0.8068,0,0,1,.62-0.9033,0.9313,0.9313,0,0,1,.3606-0.0024,0.781,0.781,0,0,0,.8685-0.5992,0.7822,0.7822,0,0,0-.5719-0.9333l-0.0353-.0077c-0.011.0439-.021,0.087-0.0327,0.13a1.6029,1.6029,0,0,1-1.2478,1.1436,1.6028,1.6028,0,0,1-1.8619-1.229,1.489,1.489,0,0,1,.004-0.7015,0.8046,0.8046,0,0,1,.6637-0.5887,0.8067,0.8067,0,0,1,.9037.62,0.9265,0.9265,0,0,1,.0027.3606,0.7812,0.7812,0,0,0,.5986.869,0.7819,0.7819,0,0,0,.9328-0.5688l0.0093-.0387c-0.031-.0074-0.061-0.0144-0.0909-0.0218a1.6036,1.6036,0,0,1-1.1771-1.2289,1.6028,1.6028,0,0,1,1.2227-1.8911,1.4863,1.4863,0,0,1,.7015.0037,0.8039,0.8039,0,0,1,.59.6659,0.8077,0.8077,0,0,1-.653.9089,0.9617,0.9617,0,0,1-.324-0.0039,0.78,0.78,0,0,0-.8662.5741A0.7823,0.7823,0,0,0,1016.6934-281.41Z" transform="translate(-986.2565 286.6607)" fill="white"/>
  <g>
    <polygon points="30.506 9.307 0 9.665 0 9.869 30.506 10.26 30.506 9.307" style="fill: white; fill-rule: evenodd"/>
    <polygon points="30.506 10.26 60.912 9.903 60.912 9.698 30.506 9.307 30.506 10.26" style="fill: white; fill-rule: evenodd"/>
  </g>
  <circle cx="30.5" cy="5.0938" r="4.5938" style="fill: none;stroke: white ;stroke-miterlimit: 10" fill="white"/>
</svg>
