<svg id="93b5b561-e083-4511-9417-5d868b32a462" data-name="Calque 1" xmlns="http://www.w3.org/2000/svg" width="64.8203mm" height="36.1211mm" viewBox="0 0 183.7425 102.3906">
  <title>schema_niveau_utilisateur</title>
  <g>
    <polygon points="183.743 102.391 173.237 95.301 173.237 82.789 183.743 89.879 183.743 102.391" style="fill: #256578"/>
    <path d="M472.262,283.3448l-5.5518.0075-0.0019.0141c-0.1679,1.2822-3.2388,21.0843-35.0373,41.85v0.01a197.2151,197.2151,0,0,1-37.35,18.5756,348.4054,348.4054,0,0,1-47.9789,14.199c-13.0008,2.9334-27.3783,5.5836-43.3332,7.8381H472.262v-82.542A0.2054,0.2054,0,0,1,472.262,283.3448Z" transform="translate(-298.5504 -272.313)" style="fill: #009443"/>
    <path d="M324.5145,304.4689c31.4241,32.6384,103.9107,46.594,126.98,47.8417" transform="translate(-298.5504 -272.313)" style="fill: none;stroke: #da231f;stroke-miterlimit: 10;stroke-width: 2px;stroke-dasharray: 6"/>
    <g>
      <rect x="48.8359" y="89.8023" width="134.9067" height="12.5883" style="fill: #348ea9"/>
      <g>
        <path d="M350.583,365.0615h1.4531l1.126,4.4111h0.0215v-4.4111h1.0313v7.37h-1.1895l-1.39-5.38h-0.0215v5.38H350.583v-7.37Z" transform="translate(-298.5504 -272.313)" style="fill: #fff"/>
        <path d="M355.0791,365.0615h1.1582v7.37h-1.1582v-7.37Z" transform="translate(-298.5504 -272.313)" style="fill: #fff"/>
        <path d="M356.7949,365.0615h1.1689l0.7578,5.7168h0.0215l0.7578-5.7168h1.0635l-1.1162,7.37h-1.5371Z" transform="translate(-298.5504 -272.313)" style="fill: #fff"/>
        <path d="M361.123,365.0615h3.1582v1.0527h-2v1.9482h1.59v1.0527h-1.59v2.2637h2v1.0527H361.123v-7.37Z" transform="translate(-298.5504 -272.313)" style="fill: #fff"/>
        <path d="M365.84,365.0615h1.5693l1.2,7.37h-1.1582l-0.2109-1.4639v0.0215h-1.3164l-0.21,1.4424H364.64Zm1.2637,4.9277-0.5156-3.6436h-0.0215l-0.5049,3.6436h1.042Z" transform="translate(-298.5504 -272.313)" style="fill: #fff"/>
        <path d="M369.1045,370.6836v-5.6221h1.1582v5.707a0.6005,0.6005,0,1,0,1.1787,0v-5.707h1.1162v5.6221A1.7309,1.7309,0,1,1,369.1045,370.6836Z" transform="translate(-298.5504 -272.313)" style="fill: #fff"/>
        <path d="M375.0225,370.6836v-5.6221h1.1582v5.707a0.6005,0.6005,0,1,0,1.1787,0v-5.707h1.1162v5.6221A1.7309,1.7309,0,1,1,375.0225,370.6836Z" transform="translate(-298.5504 -272.313)" style="fill: #fff"/>
        <path d="M380.2021,366.1143h-1.21v-1.0527h3.5791v1.0527H381.36v6.3174h-1.1582v-6.3174Z" transform="translate(-298.5504 -272.313)" style="fill: #fff"/>
        <path d="M383.13,365.0615h1.1582v7.37H383.13v-7.37Z" transform="translate(-298.5504 -272.313)" style="fill: #fff"/>
        <path d="M385.1514,365.0615H386.31v6.3174h1.9063v1.0527h-3.0645v-7.37Z" transform="translate(-298.5504 -272.313)" style="fill: #fff"/>
        <path d="M388.7734,365.0615h1.1582v7.37h-1.1582v-7.37Z" transform="translate(-298.5504 -272.313)" style="fill: #fff"/>
        <path d="M390.5947,370.6836v-0.4209H391.69v0.5059a0.58,0.58,0,0,0,.6.7158,0.5889,0.5889,0,0,0,.6006-0.7373,2.0653,2.0653,0,0,0-.99-1.6631,2.8567,2.8567,0,0,1-1.2842-2.2959,1.6112,1.6112,0,0,1,1.7266-1.832,1.5891,1.5891,0,0,1,1.6846,1.8535v0.3047h-1.0947v-0.3789c0-.5264-0.2109-0.7266-0.5791-0.7266a0.568,0.568,0,0,0-.5791.7061,2.0787,2.0787,0,0,0,1,1.59,2.8492,2.8492,0,0,1,1.2744,2.3584,1.6355,1.6355,0,0,1-1.748,1.874A1.6,1.6,0,0,1,390.5947,370.6836Z" transform="translate(-298.5504 -272.313)" style="fill: #fff"/>
        <path d="M395.5762,365.0615h1.5684l1.2,7.37h-1.1582l-0.21-1.4639v0.0215H395.66l-0.2109,1.4424H394.376Zm1.2627,4.9277-0.5156-3.6436h-0.0205l-0.5059,3.6436h1.042Z" transform="translate(-298.5504 -272.313)" style="fill: #fff"/>
        <path d="M399.3242,366.1143h-1.21v-1.0527h3.5791v1.0527h-1.2109v6.3174h-1.1582v-6.3174Z" transform="translate(-298.5504 -272.313)" style="fill: #fff"/>
        <path d="M402.252,365.0615h3.1592v1.0527H403.41v1.9482H405v1.0527h-1.59v2.2637h2.001v1.0527H402.252v-7.37Z" transform="translate(-298.5504 -272.313)" style="fill: #fff"/>
        <path d="M406.0322,370.6836v-5.6221H407.19v5.707a0.6009,0.6009,0,1,0,1.18,0v-5.707h1.1152v5.6221A1.7309,1.7309,0,1,1,406.0322,370.6836Z" transform="translate(-298.5504 -272.313)" style="fill: #fff"/>
        <path d="M410.3076,365.0615h1.7158a1.4834,1.4834,0,0,1,1.7158,1.6953V367.21a1.3775,1.3775,0,0,1-.7578,1.4521v0.0215a1.3766,1.3766,0,0,1,.7686,1.5576v1.2959a2.1622,2.1622,0,0,0,.127.8945h-1.18a2.26,2.26,0,0,1-.1055-0.9053v-1.3477c0-.6846-0.2-0.9053-0.7266-0.9053h-0.3994v3.1582h-1.1582v-7.37Zm1.5791,3.1582a0.6388,0.6388,0,0,0,.6953-0.7783v-0.5693c0-.5264-0.18-0.7578-0.59-0.7578h-0.5264V368.22h0.4209Z" transform="translate(-298.5504 -272.313)" style="fill: #fff"/>
        <path d="M418.8047,365.0615h1l-2.9053,7.37h-1.001Z" transform="translate(-298.5504 -272.313)" style="fill: #fff"/>
        <path d="M422.0166,365.0615h1.1582v6.3174H425.08v1.0527h-3.0635v-7.37Z" transform="translate(-298.5504 -272.313)" style="fill: #fff"/>
        <path d="M426.5752,365.0615h1.5693l1.2,7.37h-1.1582l-0.2109-1.4639v0.0215h-1.3164l-0.21,1.4424H425.375Zm1.2637,4.9277-0.5156-3.6436h-0.0215l-0.5049,3.6436h1.042Z" transform="translate(-298.5504 -272.313)" style="fill: #fff"/>
        <path d="M429.9033,365.0615h1.7158a1.4834,1.4834,0,0,1,1.7158,1.6953V367.21a1.3775,1.3775,0,0,1-.7578,1.4521v0.0215a1.3766,1.3766,0,0,1,.7686,1.5576v1.2959a2.1622,2.1622,0,0,0,.127.8945h-1.18a2.26,2.26,0,0,1-.1055-0.9053v-1.3477c0-.6846-0.2-0.9053-0.7266-0.9053h-0.3994v3.1582h-1.1582v-7.37Zm1.5791,3.1582a0.6388,0.6388,0,0,0,.6953-0.7783v-0.5693c0-.5264-0.18-0.7578-0.59-0.7578h-0.5264V368.22h0.4209Z" transform="translate(-298.5504 -272.313)" style="fill: #fff"/>
        <path d="M434.0625,370.6836V366.81a1.7309,1.7309,0,1,1,3.4531,0v0.6318h-1.0947v-0.7061a0.6115,0.6115,0,1,0-1.2012,0v4.0332a0.61,0.61,0,1,0,1.2012,0v-1.4424h-0.5791v-1.0537h1.6738v2.4111A1.7309,1.7309,0,1,1,434.0625,370.6836Z" transform="translate(-298.5504 -272.313)" style="fill: #fff"/>
        <path d="M438.2637,365.0615h3.1582v1.0527h-2v1.9482h1.59v1.0527h-1.59v2.2637h2v1.0527h-3.1582v-7.37Z" transform="translate(-298.5504 -272.313)" style="fill: #fff"/>
        <path d="M442.0439,370.6836v-5.6221h1.1582v5.707a0.6005,0.6005,0,1,0,1.1787,0v-5.707h1.1162v5.6221A1.7309,1.7309,0,1,1,442.0439,370.6836Z" transform="translate(-298.5504 -272.313)" style="fill: #fff"/>
        <path d="M446.3184,365.0615h1.7168a1.4834,1.4834,0,0,1,1.7158,1.6953V367.21a1.3788,1.3788,0,0,1-.7578,1.4521v0.0215a1.3766,1.3766,0,0,1,.7686,1.5576v1.2959a2.179,2.179,0,0,0,.126.8945H448.709a2.26,2.26,0,0,1-.1055-0.9053v-1.3477c0-.6846-0.2-0.9053-0.7266-0.9053h-0.4v3.1582h-1.1582v-7.37Zm1.5791,3.1582a0.6384,0.6384,0,0,0,.6953-0.7783v-0.5693c0-.5264-0.1787-0.7578-0.59-0.7578h-0.5264V368.22h0.4209Z" transform="translate(-298.5504 -272.313)" style="fill: #fff"/>
        <path d="M452.2471,365.0615h1.7051a1.5806,1.5806,0,0,1,1.7266,1.8213v0.7266a1.58,1.58,0,0,1-1.7266,1.8213h-0.5469v3.001h-1.1582v-7.37Zm1.7051,3.3164c0.3691,0,.5693-0.168.5693-0.6943V366.81c0-.5264-0.2-0.6953-0.5693-0.6953h-0.5469v2.2637h0.5469Z" transform="translate(-298.5504 -272.313)" style="fill: #fff"/>
        <path d="M456.3115,365.0615H457.47v6.3174h1.9053v1.0527h-3.0635v-7.37Z" transform="translate(-298.5504 -272.313)" style="fill: #fff"/>
        <path d="M460.8711,365.0615h1.5684l1.2,7.37h-1.1582l-0.21-1.4639v0.0215h-1.3164l-0.2109,1.4424h-1.0732Zm1.2627,4.9277-0.5156-3.6436h-0.0205l-0.5059,3.6436h1.042Z" transform="translate(-298.5504 -272.313)" style="fill: #fff"/>
        <path d="M464.1982,365.0615h1.4531l1.126,4.4111h0.0215v-4.4111H467.83v7.37h-1.1895l-1.39-5.38h-0.0215v5.38h-1.0312v-7.37Z" transform="translate(-298.5504 -272.313)" style="fill: #fff"/>
        <path d="M468.62,370.7256v-3.958a1.7087,1.7087,0,1,1,3.4111,0v0.7783h-1.0947v-0.8525a0.5872,0.5872,0,1,0-1.1582,0v4.1172a0.5858,0.5858,0,1,0,1.1582,0v-1.127h1.0947v1.042A1.7087,1.7087,0,1,1,468.62,370.7256Z" transform="translate(-298.5504 -272.313)" style="fill: #fff"/>
        <path d="M472.7275,365.0615h1.1582v3.001h1.2422v-3.001h1.1582v7.37h-1.1582v-3.3164h-1.2422v3.3164h-1.1582v-7.37Z" transform="translate(-298.5504 -272.313)" style="fill: #fff"/>
        <path d="M477.15,365.0615h3.1582v1.0527h-2v1.9482h1.59v1.0527h-1.59v2.2637h2v1.0527H477.15v-7.37Z" transform="translate(-298.5504 -272.313)" style="fill: #fff"/>
      </g>
    </g>
    <path d="M320.8029,352.7217" transform="translate(-298.5504 -272.313)" style="fill: none;stroke: #da231f;stroke-miterlimit: 10;stroke-width: 2px;stroke-dasharray: 6"/>
    <g>
      <g>
        <circle cx="20.825" cy="33.6533" r="19.325" style="fill: #da231f;stroke: #fff;stroke-miterlimit: 10;stroke-width: 3px"/>
        <path d="M321.33,295.9844c-0.8391-5.9643-3.0966-6.166-3.385-6.1671-0.2885.0011-2.546,0.2028-3.3851,6.1671a81.4388,81.4388,0,0,0-.4346,9.7389,61.8521,61.8521,0,0,0,1.1207,12.5519c0.7426,3.4659,1.425,3.7091,2.2781,3.707,0.1356,0,.74.0013,0.8907,0,0.83-.0082,1.5007-0.3076,2.229-3.7068a61.8521,61.8521,0,0,0,1.1207-12.5519A81.4388,81.4388,0,0,0,321.33,295.9844Zm-3.8561,25.7634a1.4134,1.4134,0,0,1-.536-0.0807,1.1027,1.1027,0,0,1-.4738-0.3953,4.043,4.043,0,0,1-.5057-1.0433c-0.1-.2825-0.1968-0.6106-0.2932-0.981,0.0965,0.3671.1938,0.6923,0.2936,0.9731a4.053,4.053,0,0,0,.5121,1.0488,1.1148,1.1148,0,0,0,.48.3973,1.44,1.44,0,0,0,.5425.0811H317.474Zm0.2869,0-0.2148,0h0.01l0.2281,0,0.3408,0h-0.0116Z" transform="translate(-298.5504 -272.313)" style="fill: #fff"/>
      </g>
      <g>
        <line x1="9.4962" y1="28.0896" x2="29.2931" y2="28.0896" style="fill: none;stroke: #fff;stroke-miterlimit: 10;stroke-dasharray: 2,2"/>
        <path d="M305.6325,300.4026a12.088,12.088,0,0,1,3.4189,1.9023l-0.6881-1.9023,0.6881-1.902A12.0781,12.0781,0,0,1,305.6325,300.4026Z" transform="translate(-298.5504 -272.313)" style="fill: #fff"/>
        <path d="M330.2575,300.4026a12.0878,12.0878,0,0,0-3.4189,1.9023l0.6881-1.9023-0.6881-1.902A12.0778,12.0778,0,0,0,330.2575,300.4026Z" transform="translate(-298.5504 -272.313)" style="fill: #fff"/>
      </g>
    </g>
    <g>
      <g>
        <circle cx="166.828" cy="74.8672" r="12.692" style="fill: #da231f;stroke: #fff;stroke-miterlimit: 10;stroke-width: 2px"/>
        <path d="M466.6622,340.6244c-0.5511-3.9172-2.0337-4.05-2.2232-4.05s-1.6721.1332-2.2232,4.05a53.4864,53.4864,0,0,0-.2854,6.3962,40.6224,40.6224,0,0,0,.7361,8.2437c0.4877,2.2763.9359,2.436,1.4962,2.4346,0.0891,0,.4858.0009,0.585,0,0.5454-.0054.9856-0.202,1.4639-2.4345a40.6224,40.6224,0,0,0,.7361-8.2437A53.4864,53.4864,0,0,0,466.6622,340.6244ZM464.13,357.545a0.9283,0.9283,0,0,1-.352-0.053,0.7242,0.7242,0,0,1-.3112-0.26,2.6553,2.6553,0,0,1-.3322-0.6852c-0.0655-.1856-0.1293-0.401-0.1926-0.6443,0.0634,0.2411.1273,0.4547,0.1928,0.6391a2.6619,2.6619,0,0,0,.3363.6888,0.7322,0.7322,0,0,0,.3151.261,0.9457,0.9457,0,0,0,.3563.0533H464.13Zm0.1884,0-0.1411,0h0.0063l0.15,0,0.2238,0h-0.0076Z" transform="translate(-298.5504 -272.313)" style="fill: #fff"/>
      </g>
      <path d="M468.8447,349.0566h4.1191v1.8721h-4.1191v-1.8721Z" transform="translate(-298.5504 -272.313)" style="fill: #fff"/>
      <g>
        <line x1="160.2163" y1="71.2131" x2="171.561" y2="71.2131" style="fill: none;stroke: #fff;stroke-miterlimit: 10;stroke-dasharray: 2,2"/>
        <path d="M456.3526,343.5261a12.09,12.09,0,0,1,3.4189,1.9023l-0.6881-1.9023,0.6881-1.9019A12.0779,12.0779,0,0,1,456.3526,343.5261Z" transform="translate(-298.5504 -272.313)" style="fill: #fff"/>
        <path d="M472.5255,343.5261a12.09,12.09,0,0,0-3.4189,1.9023l0.6881-1.9023-0.6881-1.9019A12.0785,12.0785,0,0,0,472.5255,343.5261Z" transform="translate(-298.5504 -272.313)" style="fill: #fff"/>
      </g>
    </g>
    <g>
      <path d="M304.5786,353.5679v-7.1934h1.9863q3.802,0,3.8022,3.5068a3.5317,3.5317,0,0,1-1.0557,2.6758,3.9163,3.9163,0,0,1-2.8267,1.0107h-1.9062Zm0.8428-6.4307v5.668h1.0737a3.0484,3.0484,0,0,0,2.2021-.7568,2.8383,2.8383,0,0,0,.7871-2.1475q0-2.7642-2.9395-2.7637h-1.1235Z" transform="translate(-298.5504 -272.313)" style="fill: #009443"/>
      <path d="M315.8,351.2056h-3.626a1.9165,1.9165,0,0,0,.4609,1.3242,1.5921,1.5921,0,0,0,1.2139.4658,2.522,2.522,0,0,0,1.5947-.5713v0.7725a2.977,2.977,0,0,1-1.791.4912,2.1737,2.1737,0,0,1-1.71-.6992,2.8632,2.8632,0,0,1-.6221-1.9687,2.808,2.808,0,0,1,.68-1.9541,2.18,2.18,0,0,1,1.6875-.7549,1.9323,1.9323,0,0,1,1.5605.6523,2.7213,2.7213,0,0,1,.5518,1.8105v0.4316Zm-0.8428-.6973a1.6714,1.6714,0,0,0-.3437-1.1084,1.1689,1.1689,0,0,0-.94-0.3965,1.3294,1.3294,0,0,0-.9883.416,1.8846,1.8846,0,0,0-.501,1.0889h2.7734Zm-0.1309-4.6953-1.3145,1.6455H312.875l1.1191-1.6455h0.832Z" transform="translate(-298.5504 -272.313)" style="fill: #009443"/>
      <path d="M317.8867,352.8257h-0.0205v0.7422H317.043v-7.6045h0.8232v3.3711h0.0205a1.9436,1.9436,0,0,1,1.7754-1.0234A1.8819,1.8819,0,0,1,321.209,349a2.8478,2.8478,0,0,1,.56,1.8486,3.1848,3.1848,0,0,1-.627,2.0645,2.0867,2.0867,0,0,1-1.7158.7744A1.6887,1.6887,0,0,1,317.8867,352.8257Zm-0.0205-2.0723v0.7178a1.5253,1.5253,0,0,0,.4141,1.0811,1.4769,1.4769,0,0,0,2.2217-.1279,2.6178,2.6178,0,0,0,.4238-1.59,2.0684,2.0684,0,0,0-.3965-1.3447,1.3091,1.3091,0,0,0-1.0723-.4863,1.4575,1.4575,0,0,0-1.1543.499A1.8325,1.8325,0,0,0,317.8662,350.7534Z" transform="translate(-298.5504 -272.313)" style="fill: #009443"/>
      <path d="M327.2363,353.5679h-0.8223v-0.8125h-0.0205a1.6882,1.6882,0,0,1-1.585.9326q-1.8354,0-1.8359-2.1865v-3.07h0.8184v2.9395q0,1.626,1.2432,1.625a1.26,1.26,0,0,0,.9912-0.4434,1.7012,1.7012,0,0,0,.3887-1.1611v-2.96h0.8223v5.1367Z" transform="translate(-298.5504 -272.313)" style="fill: #009443"/>
      <path d="M331.2793,353.5181a1.59,1.59,0,0,1-.7676.16,1.2664,1.2664,0,0,1-1.35-1.5049v-3.04h-0.8828v-0.7021h0.8828v-1.2539l0.8232-.2656v1.52h1.2939v0.7021h-1.2939v2.8945a1.1973,1.1973,0,0,0,.1748.7373,0.7006,0.7006,0,0,0,.582.2207,0.8686,0.8686,0,0,0,.5371-0.17v0.7021Z" transform="translate(-298.5504 -272.313)" style="fill: #009443"/>
      <path d="M336.0547,353.5679h-0.8223v-0.8027h-0.02a1.7231,1.7231,0,0,1-1.58.9229,1.6874,1.6874,0,0,1-1.2021-.4062,1.4067,1.4067,0,0,1-.4336-1.0781,1.638,1.638,0,0,1,1.6953-1.6758l1.54-.2158a1.061,1.061,0,0,0-1.0586-1.3086,2.53,2.53,0,0,0-1.6758.6318v-0.8428a3.1861,3.1861,0,0,1,1.7461-.4814,1.6485,1.6485,0,0,1,1.8105,1.916v3.3408Zm-0.8223-2.5986-1.2393.1709a2.0022,2.0022,0,0,0-.8623.2832,0.8174,0.8174,0,0,0-.291.72,0.7855,0.7855,0,0,0,.2676.6143,1.0382,1.0382,0,0,0,.7148.2383,1.3224,1.3224,0,0,0,1.0117-.4287,1.5327,1.5327,0,0,0,.3984-1.0859v-0.5117Z" transform="translate(-298.5504 -272.313)" style="fill: #009443"/>
      <path d="M341.8682,353.5679h-0.8223v-2.93q0-1.6348-1.1943-1.6348a1.2929,1.2929,0,0,0-1.0205.4639,1.7218,1.7218,0,0,0-.4033,1.1709v2.93h-0.8232v-5.1367h0.8232v0.8525h0.02a1.8544,1.8544,0,0,1,1.6855-.9727,1.5733,1.5733,0,0,1,1.2891.5439,2.4259,2.4259,0,0,1,.4463,1.5732v3.14Z" transform="translate(-298.5504 -272.313)" style="fill: #009443"/>
      <path d="M345.8008,353.5181a1.59,1.59,0,0,1-.7676.16,1.2664,1.2664,0,0,1-1.35-1.5049v-3.04h-0.8828v-0.7021h0.8828v-1.2539l0.8232-.2656v1.52h1.2939v0.7021h-1.2939v2.8945a1.1973,1.1973,0,0,0,.1748.7373,0.7006,0.7006,0,0,0,.582.2207,0.8686,0.8686,0,0,0,.5371-0.17v0.7021Z" transform="translate(-298.5504 -272.313)" style="fill: #009443"/>
    </g>
    <g>
      <path d="M438.5957,279.7671a4.224,4.224,0,0,1-1.9863.4209,3.202,3.202,0,0,1-2.458-.9883,3.6438,3.6438,0,0,1-.9229-2.5928,3.8212,3.8212,0,0,1,1.0381-2.7891,3.525,3.525,0,0,1,2.6338-1.0635,4.2212,4.2212,0,0,1,1.6953.2959v0.8975a3.44,3.44,0,0,0-1.7051-.4307,2.6151,2.6151,0,0,0-2.0088.8271,3.1164,3.1164,0,0,0-.7705,2.2119,2.9675,2.9675,0,0,0,.72,2.0947,2.452,2.452,0,0,0,1.8887.78,3.5484,3.5484,0,0,0,1.876-.4814v0.8174Z" transform="translate(-298.5504 -272.313)" style="fill: #009443"/>
      <path d="M442.0967,280.188a2.3809,2.3809,0,0,1-1.8184-.72,2.6654,2.6654,0,0,1-.68-1.9082,2.7755,2.7755,0,0,1,.708-2.0215,2.54,2.54,0,0,1,1.9111-.7275,2.3026,2.3026,0,0,1,1.793.707,2.8065,2.8065,0,0,1,.6445,1.9619,2.76,2.76,0,0,1-.6943,1.9688A2.4368,2.4368,0,0,1,442.0967,280.188Zm0.0605-4.6846a1.5647,1.5647,0,0,0-1.2539.5391,2.2152,2.2152,0,0,0-.4619,1.4873,2.0957,2.0957,0,0,0,.4668,1.4395,1.5834,1.5834,0,0,0,1.249.5264,1.5041,1.5041,0,0,0,1.2266-.5166,2.2389,2.2389,0,0,0,.4287-1.47,2.2787,2.2787,0,0,0-.4287-1.4844A1.4987,1.4987,0,0,0,442.1572,275.5034Z" transform="translate(-298.5504 -272.313)" style="fill: #009443"/>
      <path d="M450.2334,280.0679h-0.8223v-2.93q0-1.6348-1.1943-1.6348a1.2929,1.2929,0,0,0-1.0205.4639,1.7177,1.7177,0,0,0-.4043,1.1709v2.93H445.97v-5.1367h0.8223v0.8525h0.0205a1.8533,1.8533,0,0,1,1.6855-.9727,1.5733,1.5733,0,0,1,1.2891.5439,2.4259,2.4259,0,0,1,.4463,1.5732v3.14Z" transform="translate(-298.5504 -272.313)" style="fill: #009443"/>
      <path d="M454.3213,273.186a1.09,1.09,0,0,0-.5469-0.1357,0.8767,0.8767,0,0,0-.8623,1.0889v0.792h1.2031v0.7021h-1.2031v4.4346h-0.8184v-4.4346h-0.8779v-0.7021h0.8779v-0.832a1.7343,1.7343,0,0,1,.4668-1.2773,1.5769,1.5769,0,0,1,1.1641-.4687,1.6026,1.6026,0,0,1,.5967.0908v0.7422Z" transform="translate(-298.5504 -272.313)" style="fill: #009443"/>
      <path d="M455.42,273.6274a0.5227,0.5227,0,0,1-.376-0.15,0.5065,0.5065,0,0,1-.1562-0.3818,0.527,0.527,0,0,1,.5322-0.5361,0.5329,0.5329,0,0,1,.3838.1523,0.5363,0.5363,0,0,1,0,.7607A0.5276,0.5276,0,0,1,455.42,273.6274Zm0.4014,6.44H454.998v-5.1367h0.8232v5.1367Z" transform="translate(-298.5504 -272.313)" style="fill: #009443"/>
      <path d="M460.165,275.7642a1.0064,1.0064,0,0,0-.6221-0.166,1.0514,1.0514,0,0,0-.8809.4971,2.2985,2.2985,0,0,0-.3535,1.3545v2.6182h-0.8223v-5.1367h0.8223V275.99h0.0205a1.7947,1.7947,0,0,1,.5361-0.8447,1.2223,1.2223,0,0,1,.8076-0.3037,1.3441,1.3441,0,0,1,.4922.07v0.8525Z" transform="translate(-298.5504 -272.313)" style="fill: #009443"/>
      <path d="M468.3516,280.0679h-0.8232v-2.9492a2.2253,2.2253,0,0,0-.2627-1.2344,1,1,0,0,0-.8857-0.3809,1.097,1.097,0,0,0-.8955.4814,1.8451,1.8451,0,0,0-.3682,1.1533v2.93H464.293v-3.05q0-1.5146-1.168-1.5146a1.084,1.084,0,0,0-.8936.4541,1.88,1.88,0,0,0-.3506,1.1807v2.93h-0.8232v-5.1367h0.8232v0.8125h0.02a1.7459,1.7459,0,0,1,1.5957-.9326,1.4807,1.4807,0,0,1,1.4541,1.0635,1.8343,1.8343,0,0,1,1.7061-1.0635q1.6948,0,1.6953,2.0918v3.165Z" transform="translate(-298.5504 -272.313)" style="fill: #009443"/>
      <path d="M474.0342,277.7056h-3.626a1.9212,1.9212,0,0,0,.4609,1.3242,1.5921,1.5921,0,0,0,1.2139.4658,2.5266,2.5266,0,0,0,1.5957-.5713v0.7725a2.9811,2.9811,0,0,1-1.791.4912,2.1745,2.1745,0,0,1-1.7109-.6992,2.868,2.868,0,0,1-.6221-1.9687,2.808,2.808,0,0,1,.68-1.9541,2.1806,2.1806,0,0,1,1.6885-.7549,1.9316,1.9316,0,0,1,1.56.6523,2.7161,2.7161,0,0,1,.5518,1.8105v0.4316Zm-0.8428-.6973a1.6661,1.6661,0,0,0-.3437-1.1084,1.1689,1.1689,0,0,0-.94-0.3965,1.3309,1.3309,0,0,0-.9883.416,1.8907,1.8907,0,0,0-.501,1.0889h2.7734Zm-0.13-4.6953-1.3145,1.6455H471.11l1.1182-1.6455h0.833Z" transform="translate(-298.5504 -272.313)" style="fill: #009443"/>
    </g>
  </g>
  <path d="M328.875,310.9067h-3.1084v-1.81h3.1084v-3.1309h1.8086v3.1309h3.1084v1.81h-3.1084v3.1777H328.875v-3.1777Z" transform="translate(-298.5504 -272.313)" style="fill: #fff"/>
</svg>
