<svg id="a6500f94-7427-4f42-9da7-835c6d7542d5" data-name="Calque 1" xmlns="http://www.w3.org/2000/svg" xmlns:xlink="http://www.w3.org/1999/xlink" width="65.4294mm" height="48.0335mm" viewBox="0 0 185.4691 136.1579">
  <defs>
    <clipPath id="48a6b478-f41b-4a87-91e3-8996136daa6d" transform="translate(-296.7096 -432.6271)">
      <circle cx="460.6592" cy="453.4521" r="19.325" style="fill: none"/>
    </clipPath>
    <clipPath id="9a29dd7b-25d9-44f4-bf0f-f747c4a751df" transform="translate(-296.7096 -432.6271)">
      <circle cx="313.8442" cy="521.7132" r="15.9003" style="fill: none"/>
    </clipPath>
  </defs>
  <title>schema_epaisseur_rigidite</title>
  <path d="M471.61,458.7156l-5.5518.0075-0.0019.0141c-0.1679,1.2822-3.2388,21.0843-35.0373,41.85v0.01a197.2151,197.2151,0,0,1-37.35,18.5756,348.4054,348.4054,0,0,1-47.9789,14.199c-13.0008,2.9334-27.3783,5.5836-43.3332,7.8381H471.61v-82.542A0.2054,0.2054,0,0,1,471.61,458.7156Z" transform="translate(-296.7096 -432.6271)" style="fill: #009443"/>
  <path d="M318.8145,531.2285h4.9746v2.2607h-4.9746v-2.2607Z" transform="translate(-296.7096 -432.6271)" style="fill: #fff"/>
  <polygon points="185.469 117.447 174.963 110.358 174.963 97.846 185.469 104.936 185.469 117.447" style="fill: #256578"/>
  <g>
    <rect x="109.4154" y="104.859" width="76.0537" height="12.5883" style="fill: #348ea9"/>
    <g>
      <path d="M410.6348,540.4326h3.1592v1.0527h-2.001v1.9482h1.59v1.0527h-1.59V546.75h2.001v1.0527h-3.1592v-7.37Zm1.6846-1.7051h1.2637l-1.127,1.21h-0.873Z" transform="translate(-296.7096 -432.6271)" style="fill: #fff"/>
      <path d="M414.457,540.4326h1.7061a1.5806,1.5806,0,0,1,1.7266,1.8213V542.98a1.58,1.58,0,0,1-1.7266,1.8213h-0.5479v3.001H414.457v-7.37Zm1.7061,3.3164c0.3682,0,.5684-0.168.5684-0.6943v-0.874c0-.5264-0.2-0.6953-0.5684-0.6953h-0.5479v2.2637h0.5479Z" transform="translate(-296.7096 -432.6271)" style="fill: #fff"/>
      <path d="M419.0479,540.4326h1.5693l1.2,7.37h-1.1582l-0.2109-1.4639V546.36h-1.3164l-0.21,1.4424h-1.0742Zm1.2637,4.9277-0.5156-3.6436h-0.0215L419.27,545.36h1.042Z" transform="translate(-296.7096 -432.6271)" style="fill: #fff"/>
      <path d="M422.376,540.4326h1.1582v7.37H422.376v-7.37Z" transform="translate(-296.7096 -432.6271)" style="fill: #fff"/>
      <path d="M424.1973,546.0547v-0.4209h1.0947V546.14a0.58,0.58,0,0,0,.6006.7158,0.5887,0.5887,0,0,0,.6-0.7373,2.0664,2.0664,0,0,0-.9893-1.6631,2.8582,2.8582,0,0,1-1.2852-2.2959,1.6115,1.6115,0,0,1,1.7275-1.832,1.59,1.59,0,0,1,1.6846,1.8535v0.3047h-1.0957v-0.3789c0-.5264-0.21-0.7266-0.5791-0.7266a0.568,0.568,0,0,0-.5791.7061,2.0777,2.0777,0,0,0,1.001,1.59,2.8479,2.8479,0,0,1,1.2734,2.3584,1.6351,1.6351,0,0,1-1.748,1.874A1.5989,1.5989,0,0,1,424.1973,546.0547Z" transform="translate(-296.7096 -432.6271)" style="fill: #fff"/>
      <path d="M428.1143,546.0547v-0.4209h1.0947V546.14a0.58,0.58,0,0,0,.6006.7158,0.5887,0.5887,0,0,0,.6-0.7373,2.0664,2.0664,0,0,0-.9893-1.6631,2.8582,2.8582,0,0,1-1.2852-2.2959,1.6115,1.6115,0,0,1,1.7275-1.832,1.59,1.59,0,0,1,1.6846,1.8535v0.3047h-1.0957v-0.3789c0-.5264-0.21-0.7266-0.5791-0.7266a0.568,0.568,0,0,0-.5791.7061,2.0777,2.0777,0,0,0,1.001,1.59,2.8479,2.8479,0,0,1,1.2734,2.3584,1.6351,1.6351,0,0,1-1.748,1.874A1.5989,1.5989,0,0,1,428.1143,546.0547Z" transform="translate(-296.7096 -432.6271)" style="fill: #fff"/>
      <path d="M432.2314,540.4326H435.39v1.0527h-2v1.9482h1.59v1.0527h-1.59V546.75h2v1.0527h-3.1582v-7.37Z" transform="translate(-296.7096 -432.6271)" style="fill: #fff"/>
      <path d="M436.0117,546.0547v-5.6221H437.17v5.707a0.6009,0.6009,0,1,0,1.18,0v-5.707h1.1152v5.6221A1.7309,1.7309,0,1,1,436.0117,546.0547Z" transform="translate(-296.7096 -432.6271)" style="fill: #fff"/>
      <path d="M440.2871,540.4326h1.7158a1.4834,1.4834,0,0,1,1.7158,1.6953v0.4531a1.3788,1.3788,0,0,1-.7578,1.4521v0.0215a1.3766,1.3766,0,0,1,.7686,1.5576v1.2959a2.1622,2.1622,0,0,0,.127.8945h-1.18a2.26,2.26,0,0,1-.1055-0.9053V545.55c0-.6846-0.2-0.9053-0.7266-0.9053h-0.3994v3.1582h-1.1582v-7.37Zm1.5791,3.1582a0.6388,0.6388,0,0,0,.6953-0.7783v-0.5693c0-.5264-0.18-0.7578-0.59-0.7578h-0.5264v2.1055h0.4209Z" transform="translate(-296.7096 -432.6271)" style="fill: #fff"/>
      <path d="M448.7842,540.4326h1l-2.9062,7.37h-1Z" transform="translate(-296.7096 -432.6271)" style="fill: #fff"/>
      <path d="M451.9961,540.4326h1.7158a1.4834,1.4834,0,0,1,1.7158,1.6953v0.4531a1.3788,1.3788,0,0,1-.7578,1.4521v0.0215a1.3766,1.3766,0,0,1,.7686,1.5576v1.2959a2.1622,2.1622,0,0,0,.127.8945h-1.18a2.26,2.26,0,0,1-.1055-0.9053V545.55c0-.6846-0.2-0.9053-0.7266-0.9053h-0.3994v3.1582h-1.1582v-7.37Zm1.5791,3.1582a0.6388,0.6388,0,0,0,.6953-0.7783v-0.5693c0-.5264-0.18-0.7578-0.59-0.7578h-0.5264v2.1055h0.4209Z" transform="translate(-296.7096 -432.6271)" style="fill: #fff"/>
      <path d="M456.2393,540.4326h1.1582v7.37h-1.1582v-7.37Z" transform="translate(-296.7096 -432.6271)" style="fill: #fff"/>
      <path d="M458.1768,546.0547v-3.874a1.7309,1.7309,0,1,1,3.4531,0v0.6318h-1.0947v-0.7061a0.6111,0.6111,0,1,0-1.2,0V546.14a0.6095,0.6095,0,1,0,1.2,0v-1.4424h-0.5791v-1.0537H461.63v2.4111A1.7309,1.7309,0,1,1,458.1768,546.0547Z" transform="translate(-296.7096 -432.6271)" style="fill: #fff"/>
      <path d="M462.3779,540.4326h1.1582v7.37h-1.1582v-7.37Z" transform="translate(-296.7096 -432.6271)" style="fill: #fff"/>
      <path d="M464.3994,540.4326h1.77a1.581,1.581,0,0,1,1.7266,1.8213v3.7275a1.581,1.581,0,0,1-1.7266,1.8213h-1.77v-7.37Zm1.748,6.3174a0.5741,0.5741,0,0,0,.59-0.7158v-3.833a0.5741,0.5741,0,0,0-.59-0.7158h-0.59V546.75h0.59Z" transform="translate(-296.7096 -432.6271)" style="fill: #fff"/>
      <path d="M468.6748,540.4326h1.1582v7.37h-1.1582v-7.37Z" transform="translate(-296.7096 -432.6271)" style="fill: #fff"/>
      <path d="M471.6016,541.4854h-1.2109v-1.0527h3.58v1.0527H472.76v6.3174h-1.1582v-6.3174Z" transform="translate(-296.7096 -432.6271)" style="fill: #fff"/>
      <path d="M474.5293,540.4326h3.1582v1.0527h-2v1.9482h1.59v1.0527h-1.59V546.75h2v1.0527h-3.1582v-7.37Zm1.6846-1.7051h1.2637l-1.127,1.21h-0.874Z" transform="translate(-296.7096 -432.6271)" style="fill: #fff"/>
    </g>
  </g>
  <polyline points="169.349 26.096 5.811 108.56 80.061 104.462 141.47 92.111 162.803 71.373 172.619 40.034" style="fill: #009443"/>
  <g>
    <line x1="153.8302" y1="27.9885" x2="8.6546" y2="101.4379" style="fill: none;stroke: #da231f;stroke-miterlimit: 10;stroke-width: 2px;stroke-dasharray: 6,6"/>
    <path d="M454.094,458.8174a19.9476,19.9476,0,0,1-6.4507-.2541l2.43,2.2882,0.4037,3.3128A19.929,19.929,0,0,1,454.094,458.8174Z" transform="translate(-296.7096 -432.6271)" style="fill: #da231f"/>
  </g>
  <g>
    <path d="M471.083,457.7441h-3.8193v-2.2227h3.8193v-3.8477h2.2236v3.8477h3.8193v2.2227h-3.8193v3.9053H471.083v-3.9053Z" transform="translate(-296.7096 -432.6271)" style="fill: #fff"/>
    <circle cx="163.9496" cy="20.825" r="19.325" style="fill: #da231f;stroke: #fff;stroke-miterlimit: 10;stroke-width: 3px"/>
    <g style="clip-path: url(#48a6b478-f41b-4a87-91e3-8996136daa6d)">
      <g>
        <path d="M459.7927,437.428a1.7014,1.7014,0,0,0-2.1682.9828,3.8718,3.8718,0,0,0,0,2.7247,38.0433,38.0433,0,0,1,1.1809,6.3633c0.0882,2.2075.2646,7.8465,0.3174,11.2092s0.37,12.6858.4232,15.393,0.3876,15.1753.37,18.6072,0.2117,15.9.2644,16.7791a1.5617,1.5617,0,0,0,1.7629,1.1726,1.7966,1.7966,0,0,0,1.992-1.8624c0.0177-1.6555-.1938-31.1442-0.2819-37.6282s-0.3526-12.6681-.4055-15.72-0.2469-10.7954-.7051-12.9165-0.9169-4.1559-2.75-5.1043" transform="translate(-296.7096 -432.6271)" style="fill: #b1b1b1"/>
        <path d="M457.5676,439.2931a2.82,2.82,0,0,1,.234-0.8823,1.7016,1.7016,0,0,1,2.1684-.9828,2.4559,2.4559,0,0,1,.6862.5036,6.5794,6.5794,0,0,1,1.1863,2.0179c0.8286,1.7764.9479,4.6523,1.1419,8.05s0.2468,11.5541.3878,20.8489,0.1233,0.9419.3878,14.0133,0.1586,17.9864.1586,21.2456c0,2.5786-.0219,4.8425-0.0311,5.6765a2.2807,2.2807,0,0,1-3.2425.3606c-0.0138-.9182-0.0368-2.1334-0.0756-3.7259-0.1236-5.053-.335-21.039-0.4761-27.0574s-0.3-5.3908-.4232-12.3405-0.2644-19.4006-.4231-22.1076a12.7917,12.7917,0,0,0-1.2163-5.26,0.5338,0.5338,0,0,0-.4632-0.36" transform="translate(-296.7096 -432.6271)" style="fill: #fff"/>
      </g>
    </g>
    <circle cx="163.9496" cy="20.825" r="19.325" style="fill: none;stroke: #fff;stroke-miterlimit: 10;stroke-width: 3px"/>
    <g>
      <line x1="150.892" y1="21.1602" x2="176.6888" y2="21.1602" style="fill: none;stroke: #fff;stroke-miterlimit: 10;stroke-dasharray: 2,2"/>
      <path d="M445.1875,453.7873a12.0884,12.0884,0,0,1,3.419,1.9023l-0.6881-1.9023,0.6881-1.9019A12.0777,12.0777,0,0,1,445.1875,453.7873Z" transform="translate(-296.7096 -432.6271)" style="fill: #fff"/>
      <path d="M475.8125,453.7873a12.0886,12.0886,0,0,0-3.4189,1.9023l0.6881-1.9023-0.6881-1.9019A12.0779,12.0779,0,0,0,475.8125,453.7873Z" transform="translate(-296.7096 -432.6271)" style="fill: #fff"/>
    </g>
    <path d="M468.5859,461.8623h-3.124v-1.8184h3.124v-3.1484h1.8184v3.1484h3.124v1.8184h-3.124v3.1943h-1.8184v-3.1943Z" transform="translate(-296.7096 -432.6271)" style="fill: #fff"/>
  </g>
  <g>
    <path d="M324.2027,523.4158h3.1433v1.8288h-3.1433v3.2132h-1.8288v-3.2132h-3.1425v-1.8288h3.1425V520.25h1.8288v3.1658Z" transform="translate(-296.7096 -432.6271)" style="fill: #fff"/>
    <g>
      <circle cx="17.1346" cy="89.0861" r="15.9003" style="fill: #da231f"/>
      <path d="M313.8439,538.8479a17.1347,17.1347,0,1,1,17.1347-17.1347A17.1536,17.1536,0,0,1,313.8439,538.8479Zm0-31.801A14.6663,14.6663,0,1,0,328.51,521.7132,14.6826,14.6826,0,0,0,313.8439,507.0469Z" transform="translate(-296.7096 -432.6271)" style="fill: #fff"/>
    </g>
    <g style="clip-path: url(#9a29dd7b-25d9-44f4-bf0f-f747c4a751df)">
      <g>
        <path d="M313.1314,508.5288a1.4,1.4,0,0,0-1.7839.8086,3.1857,3.1857,0,0,0,0,2.2418,31.3015,31.3015,0,0,1,.9717,5.2357c0.0726,1.8163.2177,6.456,0.2611,9.2227s0.3046,10.4377.3482,12.6651,0.3189,12.486.3046,15.31,0.1742,13.082.2175,13.8056a1.2849,1.2849,0,0,0,1.45.9648,1.4782,1.4782,0,0,0,1.639-1.5323c0.0145-1.3622-.1595-25.625-0.232-30.96s-0.29-10.4232-.3336-12.9346a100.5593,100.5593,0,0,0-.58-10.6275c-0.3773-1.7452-.7544-3.4194-2.2628-4.2" transform="translate(-296.7096 -432.6271)" style="fill: #b1b1b1"/>
        <path d="M311.3006,510.0634a2.32,2.32,0,0,1,.1925-0.7259,1.4,1.4,0,0,1,1.7841-.8086,2.0206,2.0206,0,0,1,.5646.4143,5.4134,5.4134,0,0,1,.9761,1.66c0.6817,1.4616.78,3.8278,0.94,6.6231s0.2031,9.5066.3191,17.1542,0.1015,0.775.3191,11.53,0.13,14.7989.13,17.4806c0,2.1217-.018,3.9844-0.0256,4.6705a1.8766,1.8766,0,0,1-2.6679.2967c-0.0114-.7555-0.03-1.7553-0.0622-3.0656-0.1017-4.1575-.2757-17.3106-0.3917-22.2625s-0.2465-4.4355-.3482-10.1536-0.2175-15.9626-.3481-18.19a10.5248,10.5248,0,0,0-1.0007-4.3277,0.4392,0.4392,0,0,0-.3812-0.2958" transform="translate(-296.7096 -432.6271)" style="fill: #fff"/>
      </g>
    </g>
    <path d="M313.8439,538.8479a17.1347,17.1347,0,1,1,17.1347-17.1347A17.1536,17.1536,0,0,1,313.8439,538.8479Zm0-31.801A14.6663,14.6663,0,1,0,328.51,521.7132,14.6826,14.6826,0,0,0,313.8439,507.0469Z" transform="translate(-296.7096 -432.6271)" style="fill: #fff"/>
    <g>
      <path d="M324.3256,522.4H322.848v-0.8228h1.4776V522.4Zm-3.1232,0h-1.6456v-0.8228h1.6456V522.4Zm-3.2911,0h-1.6464v-0.8228h1.6464V522.4Zm-3.2919,0h-1.6448v-0.8228h1.6448V522.4Zm-3.29,0h-1.6464v-0.8228h1.6464V522.4Zm-3.2915,0h-1.6456v-0.8228h1.6456V522.4Zm-3.2911,0h-1.6456v-0.8228h1.6456V522.4Z" transform="translate(-296.7096 -432.6271)" style="fill: #fff"/>
      <path d="M301.1144,521.989a9.9463,9.9463,0,0,1,2.8131,1.5652l-0.5661-1.5652,0.5661-1.5649A9.9386,9.9386,0,0,1,301.1144,521.989Z" transform="translate(-296.7096 -432.6271)" style="fill: #fff"/>
      <path d="M326.3122,521.989a9.9463,9.9463,0,0,0-2.8131,1.5652l0.5661-1.5652-0.5661-1.5649A9.9386,9.9386,0,0,0,326.3122,521.989Z" transform="translate(-296.7096 -432.6271)" style="fill: #fff"/>
    </g>
    <path d="M319.3174,526.9255h3.8367v1.918h-3.8367v-1.918Z" transform="translate(-296.7096 -432.6271)" style="fill: #fff"/>
  </g>
</svg>
