<svg id="b2f0deb2-4a3a-404f-a354-f624ff1e27f3" data-name="Calque 1" xmlns="http://www.w3.org/2000/svg" width="65.5083mm" height="33.547mm" viewBox="0 0 185.6927 95.0937">
  <title>schema_taille_utilisateur</title>
  <path d="M226.6326,287.0956l-5.5518.0075-0.0019.0141c-0.1679,1.2822-3.2388,21.0843-35.0373,41.85v0.01a197.2151,197.2151,0,0,1-37.35,18.5756,348.4054,348.4054,0,0,1-47.9789,14.199c-13.0008,2.9334-27.3783,5.5836-43.3332,7.8381H226.6326v-82.542A0.2054,0.2054,0,0,1,226.6326,287.0956Z" transform="translate(-51.464 -280.068)" style="fill: #009443"/>
  <g>
    <path d="M183.9077,308.5113a1.2245,1.2245,0,1,0,2.4483,0V296.9205H187.61v11.5908a1.225,1.225,0,1,0,2.4492,0V288.9732h0.5977v7.2285a1.0645,1.0645,0,0,0,.4482.9571,0.7978,0.7978,0,0,0,.9277,0,1.042,1.042,0,0,0,.4766-0.9571v-7.4668a2.7541,2.7541,0,0,0-.835-2.0644,3.1453,3.1453,0,0,0-2.27-.8076H184.562a3.2435,3.2435,0,0,0-2.24.7783,2.6028,2.6028,0,0,0-.8662,2.0332v7.59a0.86,0.86,0,0,0,.4775.8379,0.9763,0.9763,0,0,0,.9278,0,0.872,0.872,0,0,0,.4482-0.8379v-7.291h0.5986v19.5381Zm0,0" transform="translate(-51.464 -280.068)" style="fill: #009443"/>
    <path d="M184.3833,282.607a2.5491,2.5491,0,0,0,2.541,2.54,2.3521,2.3521,0,0,0,1.7618-.7461,2.5948,2.5948,0,0,0,0-3.583,2.3448,2.3448,0,0,0-1.7618-.75,2.5559,2.5559,0,0,0-2.541,2.539h0Zm0,0" transform="translate(-51.464 -280.068)" style="fill: #009443"/>
  </g>
  <g>
    <path d="M52.5264,369.0466a0.5306,0.5306,0,1,0,1.0608,0v-5.0221h0.5433v5.0221a0.5308,0.5308,0,1,0,1.0612,0v-8.4655h0.259v3.132a0.4612,0.4612,0,0,0,.1942.4147,0.3457,0.3457,0,0,0,.4019,0,0.4515,0.4515,0,0,0,.2065-0.4147v-3.2352a1.1933,1.1933,0,0,0-.3618-0.8945,1.3628,1.3628,0,0,0-.9838-0.35H52.81a1.4053,1.4053,0,0,0-.9706.3372,1.1277,1.1277,0,0,0-.3753.8809V363.74a0.3726,0.3726,0,0,0,.2069.363,0.423,0.423,0,0,0,.402,0,0.3778,0.3778,0,0,0,.1942-0.363v-3.159h0.2594v8.4655Zm0,0" transform="translate(-51.464 -280.068)" style="fill: #009443"/>
    <path d="M52.7325,357.8228a1.1045,1.1045,0,0,0,1.101,1.1006,1.0191,1.0191,0,0,0,.7634-0.3233,1.1243,1.1243,0,0,0,0-1.5524,1.0159,1.0159,0,0,0-.7634-0.325,1.1074,1.1074,0,0,0-1.101,1.1h0Zm0,0" transform="translate(-51.464 -280.068)" style="fill: #009443"/>
  </g>
  <path d="M80.56,359.3185c22.8709-1.9928,93.9489-20.2359,123.6293-54.3558" transform="translate(-51.464 -280.068)" style="fill: none;stroke: #da231f;stroke-miterlimit: 10;stroke-width: 2px;stroke-dasharray: 6"/>
  <g>
    <circle cx="20.3198" cy="78.6482" r="9.9375" style="fill: #da231f;stroke: #fff;stroke-miterlimit: 10;stroke-width: 2px"/>
    <path d="M71.9965,354.3575c-0.3689-2.6218-1.3612-2.71-1.488-2.711s-1.1192.0892-1.488,2.711a35.7991,35.7991,0,0,0-.191,4.281,27.1891,27.1891,0,0,0,.4927,5.5176c0.3264,1.5236.6264,1.63,1.0014,1.63,0.06,0,.3252.0006,0.3915,0,0.365-.0036.66-0.1352,0.98-1.6294a27.1891,27.1891,0,0,0,.4927-5.5176A35.7991,35.7991,0,0,0,71.9965,354.3575Zm-1.6951,11.3251a0.6213,0.6213,0,0,1-.2356-0.0355,0.4847,0.4847,0,0,1-.2083-0.1738,1.7772,1.7772,0,0,1-.2223-0.4586c-0.0438-.1242-0.0865-0.2684-0.1289-0.4312,0.0424,0.1614.0852,0.3043,0.1291,0.4278a1.7816,1.7816,0,0,0,.2251.461,0.49,0.49,0,0,0,.2109.1747,0.633,0.633,0,0,0,.2385.0357H70.3014Zm0.1261,0h0Z" transform="translate(-51.464 -280.068)" style="fill: #fff"/>
  </g>
  <g>
    <circle cx="163.5529" cy="21.3389" r="19.325" style="fill: #da231f;stroke: #fff;stroke-miterlimit: 10;stroke-width: 3px"/>
    <path d="M217.9716,291.4251c-0.8391-5.9643-3.0966-6.166-3.385-6.1671-0.2885.0011-2.546,0.2028-3.3851,6.1671a81.4388,81.4388,0,0,0-.4346,9.7389,61.8521,61.8521,0,0,0,1.1207,12.5519c0.7426,3.4659,1.425,3.7091,2.2781,3.707,0.1356,0,.74.0013,0.8907,0,0.83-.0082,1.5007-0.3076,2.229-3.7068a61.8521,61.8521,0,0,0,1.1207-12.5519A81.4388,81.4388,0,0,0,217.9716,291.4251Zm-3.8561,25.7634a1.4134,1.4134,0,0,1-.536-0.0807,1.1027,1.1027,0,0,1-.4738-0.3953,4.043,4.043,0,0,1-.5057-1.0433c-0.1-.2825-0.1968-0.6106-0.2932-0.981,0.0965,0.3671.1938,0.6923,0.2936,0.9731a4.053,4.053,0,0,0,.5121,1.0488,1.1148,1.1148,0,0,0,.48.3973,1.44,1.44,0,0,0,.5425.0811h-0.0192Zm0.2869,0-0.2148,0h0.01l0.2281,0,0.3408,0h-0.0116Z" transform="translate(-51.464 -280.068)" style="fill: #fff"/>
  </g>
  <path d="M73.8364,359.6089h4.9751V361.87H73.8364v-2.2607Z" transform="translate(-51.464 -280.068)" style="fill: #fff"/>
  <g>
    <polygon points="185.693 95.094 175.187 88.004 175.187 75.492 185.693 82.583 185.693 95.094" style="fill: #256578"/>
    <rect x="116.536" y="82.5054" width="69.1567" height="12.5883" style="fill: #348ea9"/>
    <g>
      <path d="M172.9766,366.5723h-1.21V365.52h3.58v1.0527h-1.2109V372.89h-1.1582v-6.3174Z" transform="translate(-51.464 -280.068)" style="fill: #fff"/>
      <path d="M176.3149,365.52h1.5688l1.2,7.37h-1.1582l-0.21-1.4639v0.0215h-1.3164l-0.21,1.4424h-1.0737Zm1.2632,4.9277-0.5156-3.6436h-0.021l-0.5054,3.6436h1.042Z" transform="translate(-51.464 -280.068)" style="fill: #fff"/>
      <path d="M179.6421,365.52H180.8v7.37h-1.1582v-7.37Z" transform="translate(-51.464 -280.068)" style="fill: #fff"/>
      <path d="M181.6641,365.52h1.1582v6.3174h1.9058V372.89h-3.064v-7.37Z" transform="translate(-51.464 -280.068)" style="fill: #fff"/>
      <path d="M185.2861,365.52h1.1582v6.3174H188.35V372.89h-3.064v-7.37Z" transform="translate(-51.464 -280.068)" style="fill: #fff"/>
      <path d="M188.9082,365.52h3.1587v1.0527h-2v1.9482h1.59v1.0527h-1.59v2.2637h2V372.89h-3.1587v-7.37Z" transform="translate(-51.464 -280.068)" style="fill: #fff"/>
      <path d="M194.3735,371.1416V365.52h1.1582v5.707a0.6007,0.6007,0,1,0,1.1792,0V365.52h1.1157v5.6221A1.7309,1.7309,0,1,1,194.3735,371.1416Z" transform="translate(-51.464 -280.068)" style="fill: #fff"/>
      <path d="M199.5537,366.5723h-1.21V365.52h3.58v1.0527h-1.2109V372.89h-1.1582v-6.3174Z" transform="translate(-51.464 -280.068)" style="fill: #fff"/>
      <path d="M202.481,365.52h1.1582v7.37H202.481v-7.37Z" transform="translate(-51.464 -280.068)" style="fill: #fff"/>
      <path d="M204.5029,365.52h1.1582v6.3174h1.9058V372.89h-3.064v-7.37Z" transform="translate(-51.464 -280.068)" style="fill: #fff"/>
      <path d="M208.125,365.52h1.1582v7.37H208.125v-7.37Z" transform="translate(-51.464 -280.068)" style="fill: #fff"/>
      <path d="M209.9463,371.1416v-0.4209h1.0952v0.5059a0.58,0.58,0,0,0,.6.7158,0.5888,0.5888,0,0,0,.6-0.7373,2.0659,2.0659,0,0,0-.99-1.6631,2.8567,2.8567,0,0,1-1.2842-2.2959,1.611,1.611,0,0,1,1.7266-1.832,1.5893,1.5893,0,0,1,1.6846,1.8535v0.3047h-1.0952v-0.3789c0-.5264-0.21-0.7266-0.5791-0.7266a0.568,0.568,0,0,0-.5791.7061,2.0782,2.0782,0,0,0,1,1.59,2.8485,2.8485,0,0,1,1.2739,2.3584,1.6352,1.6352,0,0,1-1.7476,1.874A1.5993,1.5993,0,0,1,209.9463,371.1416Z" transform="translate(-51.464 -280.068)" style="fill: #fff"/>
      <path d="M214.9272,365.52h1.5688l1.2,7.37h-1.1582l-0.21-1.4639v0.0215h-1.3164l-0.21,1.4424h-1.0737Zm1.2632,4.9277-0.5156-3.6436h-0.021l-0.5054,3.6436h1.042Z" transform="translate(-51.464 -280.068)" style="fill: #fff"/>
      <path d="M218.6758,366.5723h-1.21V365.52h3.58v1.0527H219.834V372.89h-1.1582v-6.3174Z" transform="translate(-51.464 -280.068)" style="fill: #fff"/>
      <path d="M221.603,365.52h3.1587v1.0527h-2v1.9482h1.59v1.0527h-1.59v2.2637h2V372.89H221.603v-7.37Z" transform="translate(-51.464 -280.068)" style="fill: #fff"/>
      <path d="M225.3833,371.1416V365.52h1.1582v5.707a0.6007,0.6007,0,1,0,1.1792,0V365.52h1.1157v5.6221A1.7309,1.7309,0,1,1,225.3833,371.1416Z" transform="translate(-51.464 -280.068)" style="fill: #fff"/>
      <path d="M229.6582,365.52h1.7163a1.4834,1.4834,0,0,1,1.7158,1.6953v0.4531a1.3782,1.3782,0,0,1-.7578,1.4521v0.0215a1.3766,1.3766,0,0,1,.7686,1.5576v1.2959a2.1706,2.1706,0,0,0,.1265.8945h-1.1792a2.26,2.26,0,0,1-.1055-0.9053v-1.3477c0-.6846-0.2-0.9053-0.7266-0.9053h-0.4V372.89h-1.1582v-7.37Zm1.5791,3.1582a0.6388,0.6388,0,0,0,.6953-0.7783V367.33c0-.5264-0.1792-0.7578-0.59-0.7578h-0.5264v2.1055h0.4209Z" transform="translate(-51.464 -280.068)" style="fill: #fff"/>
    </g>
  </g>
  <path d="M224.73,306.8477h-3.1084v-1.81H224.73v-3.1309h1.8086v3.1309h3.1084v1.81h-3.1084v3.1777H224.73v-3.1777Z" transform="translate(-51.464 -280.068)" style="fill: #fff"/>
</svg>
