<svg id="4fab8c90-7ef2-4d77-bb4f-f114e83b0965" data-name="Calque 1" xmlns="http://www.w3.org/2000/svg" width="68.6398mm" height="41.7856mm" viewBox="0 0 194.5696 118.4473">
  <title>schema_largeur_stabilite</title>
  <path d="M229.5975,458.7156l-5.5518.0075-0.0019.0141c-0.1679,1.2822-3.2388,21.0843-35.0373,41.85v0.01a197.2151,197.2151,0,0,1-37.35,18.5756,348.4054,348.4054,0,0,1-47.9789,14.199c-13.0008,2.9334-27.3783,5.5836-43.3332,7.8381H229.5975v-82.542A0.2054,0.2054,0,0,1,229.5975,458.7156Z" transform="translate(-46.0044 -431.6271)" style="fill: #009443"/>
  <path d="M76.8013,531.2285h4.9751v2.2607H76.8013v-2.2607Z" transform="translate(-46.0044 -431.6271)" style="fill: #fff"/>
  <polygon points="194.161 118.447 183.656 111.358 183.656 98.846 194.161 105.936 194.161 118.447" style="fill: #256578"/>
  <g>
    <rect x="116.8289" y="105.859" width="77.3325" height="12.5883" style="fill: #348ea9"/>
    <g>
      <path d="M167.9,540.4326h1.1582V546.75h1.9058v1.0527H167.9v-7.37Z" transform="translate(-46.0044 -431.6271)" style="fill: #fff"/>
      <path d="M172.46,540.4326h1.5688l1.2,7.37h-1.1582l-0.21-1.4639V546.36h-1.3164l-0.21,1.4424H171.26Zm1.2632,4.9277-0.5156-3.6436h-0.021l-0.5054,3.6436h1.042Z" transform="translate(-46.0044 -431.6271)" style="fill: #fff"/>
      <path d="M175.7871,540.4326h1.7163a1.4834,1.4834,0,0,1,1.7158,1.6953v0.4531a1.3782,1.3782,0,0,1-.7578,1.4521v0.0215a1.3766,1.3766,0,0,1,.7686,1.5576v1.2959a2.1706,2.1706,0,0,0,.1265.8945h-1.1792a2.26,2.26,0,0,1-.1055-0.9053V545.55c0-.6846-0.2-0.9053-0.7266-0.9053h-0.4v3.1582h-1.1582v-7.37Zm1.5791,3.1582a0.6388,0.6388,0,0,0,.6953-0.7783v-0.5693c0-.5264-0.1792-0.7578-0.59-0.7578h-0.5264v2.1055h0.4209Z" transform="translate(-46.0044 -431.6271)" style="fill: #fff"/>
      <path d="M179.9468,546.0547v-3.874a1.7309,1.7309,0,1,1,3.4531,0v0.6318h-1.0947v-0.7061a0.6113,0.6113,0,1,0-1.2007,0V546.14a0.61,0.61,0,1,0,1.2007,0v-1.4424h-0.5791v-1.0537H183.4v2.4111A1.7309,1.7309,0,1,1,179.9468,546.0547Z" transform="translate(-46.0044 -431.6271)" style="fill: #fff"/>
      <path d="M184.1479,540.4326h3.1587v1.0527h-2v1.9482h1.59v1.0527h-1.59V546.75h2v1.0527h-3.1587v-7.37Z" transform="translate(-46.0044 -431.6271)" style="fill: #fff"/>
      <path d="M187.9282,546.0547v-5.6221h1.1582v5.707a0.6007,0.6007,0,1,0,1.1792,0v-5.707h1.1157v5.6221A1.7309,1.7309,0,1,1,187.9282,546.0547Z" transform="translate(-46.0044 -431.6271)" style="fill: #fff"/>
      <path d="M192.2031,540.4326h1.7163a1.4834,1.4834,0,0,1,1.7158,1.6953v0.4531a1.3782,1.3782,0,0,1-.7578,1.4521v0.0215a1.3766,1.3766,0,0,1,.7686,1.5576v1.2959a2.1706,2.1706,0,0,0,.1265.8945h-1.1792a2.26,2.26,0,0,1-.1055-0.9053V545.55c0-.6846-0.2-0.9053-0.7266-0.9053h-0.4v3.1582h-1.1582v-7.37Zm1.5791,3.1582a0.6388,0.6388,0,0,0,.6953-0.7783v-0.5693c0-.5264-0.1792-0.7578-0.59-0.7578h-0.5264v2.1055h0.4209Z" transform="translate(-46.0044 -431.6271)" style="fill: #fff"/>
      <path d="M200.7,540.4326h1l-2.9058,7.37h-1Z" transform="translate(-46.0044 -431.6271)" style="fill: #fff"/>
      <path d="M203.7119,546.0547v-0.4209h1.0952V546.14a0.58,0.58,0,0,0,.6.7158,0.5888,0.5888,0,0,0,.6-0.7373,2.0659,2.0659,0,0,0-.99-1.6631,2.8567,2.8567,0,0,1-1.2842-2.2959,1.611,1.611,0,0,1,1.7266-1.832,1.5893,1.5893,0,0,1,1.6846,1.8535v0.3047h-1.0952v-0.3789c0-.5264-0.21-0.7266-0.5791-0.7266a0.568,0.568,0,0,0-.5791.7061,2.0782,2.0782,0,0,0,1,1.59,2.8485,2.8485,0,0,1,1.2739,2.3584,1.6352,1.6352,0,0,1-1.7476,1.874A1.5993,1.5993,0,0,1,203.7119,546.0547Z" transform="translate(-46.0044 -431.6271)" style="fill: #fff"/>
      <path d="M208.7344,541.4854h-1.21v-1.0527h3.58v1.0527h-1.2109v6.3174h-1.1582v-6.3174Z" transform="translate(-46.0044 -431.6271)" style="fill: #fff"/>
      <path d="M212.0728,540.4326h1.5688l1.2,7.37h-1.1582l-0.21-1.4639V546.36h-1.3164l-0.21,1.4424h-1.0737Zm1.2632,4.9277-0.5156-3.6436h-0.021l-0.5054,3.6436h1.042Z" transform="translate(-46.0044 -431.6271)" style="fill: #fff"/>
      <path d="M215.4,540.4326h1.7476a1.4836,1.4836,0,0,1,1.7163,1.6953v0.2949a1.3594,1.3594,0,0,1-.7476,1.4424v0.0205a1.4115,1.4115,0,0,1,.8633,1.5371v0.6318a1.5666,1.5666,0,0,1-1.7583,1.748H215.4v-7.37Zm1.6108,3.001a0.6388,0.6388,0,0,0,.6948-0.7793v-0.4111c0-.5264-0.1787-0.7578-0.5894-0.7578h-0.5581v1.9482h0.4526Zm0.21,3.3164c0.39,0,.6-0.1787.6-0.7266v-0.6426c0-.6836-0.2207-0.8945-0.7471-0.8945h-0.5161V546.75h0.6631Z" transform="translate(-46.0044 -431.6271)" style="fill: #fff"/>
      <path d="M219.6543,540.4326h1.1582v7.37h-1.1582v-7.37Z" transform="translate(-46.0044 -431.6271)" style="fill: #fff"/>
      <path d="M221.6758,540.4326h1.1582V546.75H224.74v1.0527h-3.064v-7.37Z" transform="translate(-46.0044 -431.6271)" style="fill: #fff"/>
      <path d="M225.2979,540.4326h1.1582v7.37h-1.1582v-7.37Z" transform="translate(-46.0044 -431.6271)" style="fill: #fff"/>
      <path d="M228.2246,541.4854h-1.21v-1.0527h3.58v1.0527h-1.2109v6.3174h-1.1582v-6.3174Z" transform="translate(-46.0044 -431.6271)" style="fill: #fff"/>
      <path d="M231.1523,540.4326h3.1587v1.0527h-2v1.9482h1.59v1.0527h-1.59V546.75h2v1.0527h-3.1587v-7.37Zm1.6846-1.7051h1.2637l-1.127,1.21H232.1Z" transform="translate(-46.0044 -431.6271)" style="fill: #fff"/>
    </g>
  </g>
  <polyline points="179.182 26.184 14.34 109.583 89.894 104.55 151.303 92.199 172.636 71.461 182.452 40.122" style="fill: #009443"/>
  <g>
    <line x1="162.5225" y1="28.9885" x2="12.0586" y2="105.1134" style="fill: none;stroke: #da231f;stroke-miterlimit: 10;stroke-width: 2px;stroke-dasharray: 6,6"/>
    <path d="M212.0812,458.8174a19.9477,19.9477,0,0,1-6.4507-.2541l2.43,2.2882,0.4037,3.3128A19.929,19.929,0,0,1,212.0812,458.8174Z" transform="translate(-46.0044 -431.6271)" style="fill: #da231f"/>
  </g>
  <circle cx="173.7446" cy="20.825" r="19.325" style="fill: #da231f;stroke: #fff;stroke-miterlimit: 10;stroke-width: 3px"/>
  <path d="M228.2158,460.3457h-3.1084v-1.81h3.1084v-3.1309h1.8086v3.1309h3.1084v1.81h-3.1084v3.1777h-1.8086v-3.1777Z" transform="translate(-46.0044 -431.6271)" style="fill: #fff"/>
  <path d="M222.4724,443.9022c-0.7235-5.1429-2.67-5.3168-2.9188-5.3177-0.2488.0009-2.1954,0.1749-2.9189,5.3177A70.2226,70.2226,0,0,0,216.26,452.3a53.3334,53.3334,0,0,0,.9664,10.8232c0.64,2.9886,1.2287,3.1983,1.9644,3.1964,0.1169,0,.6379.0012,0.768,0,0.716-.0071,1.294-0.2653,1.922-3.1963a53.3334,53.3334,0,0,0,.9664-10.8232A70.2226,70.2226,0,0,0,222.4724,443.9022Zm-3.325,22.2151a1.2187,1.2187,0,0,1-.4622-0.07,0.9509,0.9509,0,0,1-.4086-0.3408,3.4862,3.4862,0,0,1-.4361-0.9c-0.0859-.2436-0.17-0.5265-0.2528-0.8459,0.0832,0.3166.1671,0.5969,0.2531,0.8391a3.4948,3.4948,0,0,0,.4416.9043,0.9613,0.9613,0,0,0,.4137.3426,1.2416,1.2416,0,0,0,.4678.07h-0.0165Zm0.2474,0-0.1852,0h0.0083l0.1967,0,0.2939,0h-0.01Z" transform="translate(-46.0044 -431.6271)" style="fill: #fff"/>
  <g>
    <line x1="162.8926" y1="19.5887" x2="184.5966" y2="19.5887" style="fill: none;stroke: #fff;stroke-miterlimit: 10;stroke-dasharray: 2,2"/>
    <path d="M206.483,451.2159a12.0885,12.0885,0,0,1,3.4189,1.9023l-0.6881-1.9023,0.6881-1.9019A12.0778,12.0778,0,0,1,206.483,451.2159Z" transform="translate(-46.0044 -431.6271)" style="fill: #fff"/>
    <path d="M233.0151,451.2159a12.0885,12.0885,0,0,0-3.4189,1.9023l0.6881-1.9023-0.6881-1.9019A12.0778,12.0778,0,0,0,233.0151,451.2159Z" transform="translate(-46.0044 -431.6271)" style="fill: #fff"/>
  </g>
  <circle cx="20.825" cy="87.6372" r="19.325" style="fill: #da231f;stroke: #fff;stroke-miterlimit: 10;stroke-width: 3px"/>
  <path d="M77.9868,527.3438v1.5078h-5.729v-1.5078h5.729Z" transform="translate(-46.0044 -431.6271)" style="fill: #fff"/>
  <path d="M69.5528,510.7144c-0.7235-5.1429-2.67-5.3168-2.9188-5.3177-0.2488.0009-2.1954,0.1749-2.9189,5.3177a70.2226,70.2226,0,0,0-.3747,8.3976,53.3334,53.3334,0,0,0,.9664,10.8232c0.64,2.9886,1.2287,3.1983,1.9644,3.1964,0.1169,0,.6379.0012,0.768,0,0.716-.0071,1.294-0.2653,1.922-3.1963a53.3334,53.3334,0,0,0,.9664-10.8232A70.2226,70.2226,0,0,0,69.5528,510.7144ZM66.2278,532.93a1.2187,1.2187,0,0,1-.4622-0.07,0.9509,0.9509,0,0,1-.4086-0.3408,3.4862,3.4862,0,0,1-.4361-0.9c-0.0859-.2436-0.17-0.5265-0.2528-0.8459,0.0832,0.3166.1671,0.5969,0.2531,0.8391a3.4948,3.4948,0,0,0,.4416.9043,0.9613,0.9613,0,0,0,.4137.3426,1.2416,1.2416,0,0,0,.4678.07H66.2278Zm0.2474,0-0.1852,0h0.0083l0.1967,0,0.2939,0h-0.01Z" transform="translate(-46.0044 -431.6271)" style="fill: #fff"/>
  <g>
    <line x1="9.973" y1="86.4009" x2="31.677" y2="86.4009" style="fill: none;stroke: #fff;stroke-miterlimit: 10;stroke-dasharray: 2,2"/>
    <path d="M53.5633,518.0281a12.0885,12.0885,0,0,1,3.4189,1.9023l-0.6881-1.9023,0.6881-1.9019A12.0778,12.0778,0,0,1,53.5633,518.0281Z" transform="translate(-46.0044 -431.6271)" style="fill: #fff"/>
    <path d="M80.0955,518.0281a12.0885,12.0885,0,0,0-3.4189,1.9023l0.6881-1.9023-0.6881-1.9019A12.0778,12.0778,0,0,0,80.0955,518.0281Z" transform="translate(-46.0044 -431.6271)" style="fill: #fff"/>
  </g>
</svg>
