<svg id="806ee48f-1e78-4952-a9c8-6fb7a295159e" data-name="Numbers" xmlns="http://www.w3.org/2000/svg" xmlns:xlink="http://www.w3.org/1999/xlink" width="70.2709mm" height="127.0396mm" viewBox="0 0 199.1932 360.1121">
  <defs>
    <mask id="49cad937-4fc4-4fce-bace-16e28619d0a9" x="-43.404" y="-48.0446" width="272.2681" height="270.5592" maskUnits="userSpaceOnUse"/>
    <mask id="ac57bb07-2e9e-43c0-8551-e914d901773f" x="14.3623" y="-1.1125" width="158.8259" height="158.8606" maskUnits="userSpaceOnUse"/>
    <clipPath id="c18dc060-f9c9-42b2-a826-2c03a962b835" transform="translate(1279.1687 114.5731)">
      <path id="a74015b1-1217-4c7b-94ff-dfdf8d8cd121" data-name="Circle" d="M-1193.3908,3.4564A47.8206,47.8206,0,0,1-1241.1572-44.31a47.82,47.82,0,0,1,47.7664-47.7654A47.8189,47.8189,0,0,1-1145.6254-44.31,47.82,47.82,0,0,1-1193.3908,3.4564Z" style="fill: none"/>
    </clipPath>
    <clipPath id="8ff4fb4e-f422-4c0a-844f-f71a2c361133" transform="translate(1279.1687 114.5731)">
      <rect x="-1232.9394" y="-82.5524" width="80.7145" height="85.5982" style="fill: none"/>
    </clipPath>
  </defs>
  <title>bullet_shape</title>
  <g style="mask: url(#49cad937-4fc4-4fce-bace-16e28619d0a9)">
    <path id="c82ce47a-acb8-415d-a726-ab1e0cf9ed04" data-name="Shadow" d="M-1254.2657-91.7818c38.8214-38.8214,101.2458-24.7909,143.5861,17.5494s37.4033,93.42,6.3816,124.4413c-37.4033,37.4033-106.0322,40.7448-148.3723-1.5954S-1279.7921-66.2554-1254.2657-91.7818Z" transform="translate(1279.1687 114.5731)" style="opacity: 0.8200000000000001"/>
  </g>
  <path id="0f918834-40cc-421a-819f-a346a1e8ba32" data-name="Point" d="M-1150.3859-87.3151L-1107.38-44.31l-43.0054,43.0053a60.8187,60.8187,0,0,1-86.0107,0,60.8187,60.8187,0,0,1,0-86.0107A60.8187,60.8187,0,0,1-1150.3859-87.3151Z" transform="translate(1279.1687 114.5731)" style="fill: #009443"/>
  <g style="mask: url(#ac57bb07-2e9e-43c0-8551-e914d901773f)">
    <path id="2fcf557b-e978-4bfd-ac3b-cd74dfd1232f" data-name="Shadow" d="M-1236.3966-87.3151a60.8187,60.8187,0,0,1,86.0107,0c5.8155,5.8155,15.359,15.3589,23.9816,23.9816a116.5694,116.5694,0,0,1,11.4968,26.5507l-35.4784,35.4784a60.8187,60.8187,0,0,1-86.0107,0A60.8187,60.8187,0,0,1-1236.3966-87.3151Z" transform="translate(1279.1687 114.5731)" style="fill: #004243"/>
  </g>
  <path id="01ef6f1a-e317-48ea-9ac9-0ce203b7c008" data-name="Circle" d="M-1193.3908,3.4564A47.8206,47.8206,0,0,1-1241.1572-44.31a47.82,47.82,0,0,1,47.7664-47.7654A47.8189,47.8189,0,0,1-1145.6254-44.31,47.82,47.82,0,0,1-1193.3908,3.4564Z" transform="translate(1279.1687 114.5731)" style="fill: #009443"/>
  <g style="clip-path: url(#c18dc060-f9c9-42b2-a826-2c03a962b835)">
    <g style="clip-path: url(#8ff4fb4e-f422-4c0a-844f-f71a2c361133)">
      <path d="M-1154.0486,81.0519c0,50.6534-4.3006,94.1334-11.338,126.9811-7.368,34.3877-14.1493,37.4165-22.55,37.5-1.5265.0148-7.6381-.0023-9.01,0.0013-8.631.022-15.5343-2.4385-23.0465-37.5013-7.0372-32.8477-11.3378-76.3277-11.3378-126.9811,0-36.9982,1.1-75.0981,4.3961-98.5239,8.489-60.3381,31.3267-62.3783,34.2453-62.39,2.9185,0.0117,25.756,2.0518,34.245,62.39,3.2962,23.4258,4.3966,61.5257,4.3966,98.5239m-33.9054,162.1107a13.7251,13.7251,0,0,0,5.3431-.9115,11.7574,11.7574,0,0,0,4.7819-4.1324,42.3349,42.3349,0,0,0,5.11-10.6306,166.6071,166.6071,0,0,0,5.3583-20.0293,483.2646,483.2646,0,0,0,8.2594-56.4917c2.0025-21.8313,3.0181-45.3542,3.0181-69.9152,0-30.6043-.7577-72.4728-4.3692-98.1406-1.9182-13.6376-4.7335-25.2807-8.3661-34.6052-2.9167-7.4858-6.3663-13.5058-10.2529-17.8928-6.63-7.4833-12.4922-7.8991-13.619-7.905-1.1273.0058-6.989,0.4217-13.6186,7.905-3.8872,4.3869-7.3366,10.407-10.2533,17.8928-3.6326,9.3245-6.4477,20.9676-8.3664,34.6052-3.6116,25.6679-4.3694,67.5368-4.3694,98.1406,0,24.561,1.0156,48.0839,3.0183,69.9152a483.3648,483.3648,0,0,0,8.2591,56.4917,164.9789,164.9789,0,0,0,5.4389,20.2554,40.9811,40.9811,0,0,0,5.1805,10.61,11.2665,11.2665,0,0,0,4.853,4.0193,14.5678,14.5678,0,0,0,5.49.8209h0.1059c0.1337,0,.3122,0,0.5262,0,0.5675,0,1.3893.0009,2.3076,0.0023,1.1573,0.0013,2.4668.0031,3.6071,0.0031,1.291,0,2.1272-.0023,2.5569-0.0063" transform="translate(1279.1687 114.5731)" style="fill: #fff"/>
      <polyline points="121.494 118.867 121.396 108.258 117.795 84.316 110.399 59.207 99.79 42.467 88.598 36.043 84.9 36.433 75.848 40.52 65.824 52.394 56.578 78.38 52.588 99.499 51.323 117.619" style="fill: #fff"/>
    </g>
  </g>
</svg>
