<svg id="7701f9df-a15e-42a3-a268-9bb6ead43b12" data-name="Numbers" xmlns="http://www.w3.org/2000/svg" xmlns:xlink="http://www.w3.org/1999/xlink" width="70.2709mm" height="68.4007mm" viewBox="0 0 199.1932 193.8917">
  <defs>
    <mask id="7b8dc06a-126f-479d-a2b8-ea22ff4aa44d" x="-43.404" y="-48.0446" width="272.2681" height="270.5592" maskUnits="userSpaceOnUse"/>
    <mask id="fa7e65b3-4dbb-4179-afe4-88abb99d2cca" x="14.3623" y="-1.1125" width="158.8259" height="158.8606" maskUnits="userSpaceOnUse"/>
  </defs>
  <title>bullet_structure</title>
  <g style="mask: url(#7b8dc06a-126f-479d-a2b8-ea22ff4aa44d)">
    <path id="e4cfcb51-c578-4a2b-ad6f-8edab713af73" data-name="Shadow" d="M-1254.2657,77.242c38.8214-38.8214,101.2458-24.7909,143.5861,17.5494s37.4033,93.42,6.3816,124.4413c-37.4033,37.4033-106.0322,40.7448-148.3723-1.5954S-1279.7921,102.7684-1254.2657,77.242Z" transform="translate(1279.1687 -54.4508)" style="opacity: 0.8200000000000001"/>
  </g>
  <path id="e0e910cc-7377-4bc2-bc70-4be31f756a21" data-name="Point" d="M-1150.3859,81.7087l43.0054,43.0054-43.0054,43.0053a60.8187,60.8187,0,0,1-86.0107,0,60.8187,60.8187,0,0,1,0-86.0107A60.8187,60.8187,0,0,1-1150.3859,81.7087Z" transform="translate(1279.1687 -54.4508)" style="fill: #da231f"/>
  <g style="mask: url(#fa7e65b3-4dbb-4179-afe4-88abb99d2cca)">
    <path id="0ef3d713-97a0-40e1-9d19-64ea6c3caf5c" data-name="Shadow" d="M-1236.3966,81.7087a60.8187,60.8187,0,0,1,86.0107,0c5.8155,5.8155,15.359,15.3589,23.9816,23.9816a116.5694,116.5694,0,0,1,11.4968,26.5507l-35.4784,35.4784a60.8187,60.8187,0,0,1-86.0107,0A60.8187,60.8187,0,0,1-1236.3966,81.7087Z" transform="translate(1279.1687 -54.4508)" style="fill: #58231f"/>
  </g>
  <path id="5f8a49fa-2cd6-44c4-aa12-6b5583acaa0d" data-name="Circle" d="M-1193.3908,172.48a47.8206,47.8206,0,0,1-47.7664-47.7664,47.82,47.82,0,0,1,47.7664-47.7654,47.8189,47.8189,0,0,1,47.7654,47.7654A47.82,47.82,0,0,1-1193.3908,172.48Z" transform="translate(1279.1687 -54.4508)" style="fill: #da231f"/>
  <g>
    <rect x="-1220.1272" y="145.6722" width="1.8046" height="3.6087" transform="translate(889.2642 -812.7812) rotate(-40.6271)" style="fill: #fff"/>
    <path d="M-1214.7181,145.9877l-2.3495-2.7389,2.6473-2.2708,2.3495,2.7389Zm5.2947-4.5415-2.35-2.7389,2.6471-2.2708,2.35,2.7389Zm5.2943-4.5415-2.3495-2.7389,2.6473-2.2708,2.3495,2.7389Zm5.2945-4.5415-2.3495-2.7389,2.6473-2.2708,2.3495,2.7389Zm5.2944-4.5415-2.3495-2.739,2.6473-2.2708,2.3495,2.7392Zm5.2945-4.5414-2.3495-2.7392,2.6473-2.2708,2.3495,2.7392Zm5.2947-4.5415-2.35-2.7392,2.6471-2.2708,2.35,2.7392Zm5.2943-4.5415-2.3495-2.7392,2.6473-2.2708,2.3495,2.7392Zm5.2945-4.5415-2.3495-2.7392,2.6473-2.2708,2.3495,2.7392Z" transform="translate(1279.1687 -54.4508)" style="fill: #fff"/>
    <rect x="-1168.4599" y="101.3525" width="1.8045" height="3.609" transform="translate(930.6202 -789.7783) rotate(-40.6241)" style="fill: #fff"/>
    <path d="M-1226.522,153.736a43.6259,43.6259,0,0,1,13.8347-2.8224l-6.3545-3.594-2.5841-6.8264A43.588,43.588,0,0,1-1226.522,153.736Z" transform="translate(1279.1687 -54.4508)" style="fill: #fff"/>
    <path d="M-1160.2605,96.8975a43.6258,43.6258,0,0,0-4.8952,13.2439l-2.585-6.8275-6.3536-3.593A43.588,43.588,0,0,0-1160.2605,96.8975Z" transform="translate(1279.1687 -54.4508)" style="fill: #fff"/>
  </g>
</svg>
