<svg id="239545e7-fa6f-46da-8b1f-e921afb29963" data-name="Numbers" xmlns="http://www.w3.org/2000/svg" xmlns:xlink="http://www.w3.org/1999/xlink" width="70.2709mm" height="68.4007mm" viewBox="0 0 199.1932 193.8917">
  <defs>
    <mask id="8cc6696e-0d28-4ebf-a99c-e989902ae8c9" x="-43.404" y="-48.0446" width="272.2681" height="270.5592" maskUnits="userSpaceOnUse"/>
    <mask id="262d44f7-21a4-46a3-b7a7-237dcdf8482e" x="14.3623" y="-1.1125" width="158.8259" height="158.8606" maskUnits="userSpaceOnUse"/>
    <clipPath id="9bd24361-647e-43ed-9e5b-745326bf059c" transform="translate(1279.1687 -223.4746)">
      <path id="5cfa1da4-56d9-4f6d-b4ad-64c9114f9c07" data-name="Circle" d="M-1193.3908,341.5041a47.8206,47.8206,0,0,1-47.7664-47.7664,47.82,47.82,0,0,1,47.7664-47.7654,47.8189,47.8189,0,0,1,47.7654,47.7654A47.82,47.82,0,0,1-1193.3908,341.5041Z" style="fill: none"/>
    </clipPath>
  </defs>
  <title>bullet_pad</title>
  <g style="mask: url(#8cc6696e-0d28-4ebf-a99c-e989902ae8c9)">
    <path id="ec934dee-b034-4ad0-8a0f-3d4a8ec985a5" data-name="Shadow" d="M-1254.2657,246.2659c38.8214-38.8214,101.2458-24.7909,143.5861,17.5494s37.4033,93.42,6.3816,124.4413c-37.4033,37.4033-106.0322,40.7448-148.3723-1.5954S-1279.7921,271.7923-1254.2657,246.2659Z" transform="translate(1279.1687 -223.4746)" style="opacity: 0.8200000000000001"/>
  </g>
  <path id="68f248c3-bfa2-41ed-aa65-75e7ba49a36f" data-name="Point" d="M-1150.3859,250.7326l43.0054,43.0054-43.0054,43.0053a60.8187,60.8187,0,0,1-86.0107,0,60.8187,60.8187,0,0,1,0-86.0107A60.8187,60.8187,0,0,1-1150.3859,250.7326Z" transform="translate(1279.1687 -223.4746)" style="fill: #009443"/>
  <g style="mask: url(#262d44f7-21a4-46a3-b7a7-237dcdf8482e)">
    <path id="60894f07-8e7e-4fc0-813b-b6a572f41504" data-name="Shadow" d="M-1236.3966,250.7326a60.8187,60.8187,0,0,1,86.0107,0c5.8155,5.8155,15.359,15.3589,23.9816,23.9816a116.5694,116.5694,0,0,1,11.4968,26.5507l-35.4784,35.4784a60.8187,60.8187,0,0,1-86.0107,0A60.8187,60.8187,0,0,1-1236.3966,250.7326Z" transform="translate(1279.1687 -223.4746)" style="fill: #004243"/>
  </g>
  <path id="0d268c2f-5b62-47e2-abfb-2edeb7bce1d4" data-name="Circle" d="M-1193.3908,341.5041a47.8206,47.8206,0,0,1-47.7664-47.7664,47.82,47.82,0,0,1,47.7664-47.7654,47.8189,47.8189,0,0,1,47.7654,47.7654A47.82,47.82,0,0,1-1193.3908,341.5041Z" transform="translate(1279.1687 -223.4746)" style="fill: #009443"/>
  <g style="clip-path: url(#9bd24361-647e-43ed-9e5b-745326bf059c)">
    <g>
      <path d="M-1217.39,271.4061h-17.6056l-8.8027-15.2468,8.8027-15.2468h17.6056l8.8027,15.2468Zm-16.2006-2.4335h14.7955l7.3976-12.8133-7.3976-12.8133h-14.7955l-7.3976,12.8133Z" transform="translate(1279.1687 -223.4746)" style="fill: #fff"/>
      <path d="M-1193.06,285.436h-17.6056l-8.8028-15.2467,8.8028-15.2468h17.6056l8.8027,15.2468Zm-16.2006-2.4335h14.7955l7.3976-12.8131-7.3976-12.8133h-14.7955l-7.3978,12.8133Z" transform="translate(1279.1687 -223.4746)" style="fill: #fff"/>
      <path d="M-1168.5187,271.4061h-17.6055l-8.8028-15.2468,8.8028-15.2468h17.6055l8.8028,15.2468Zm-16.2-2.4335h14.7954l7.3978-12.8133-7.3978-12.8133h-14.7954l-7.3978,12.8133Z" transform="translate(1279.1687 -223.4746)" style="fill: #fff"/>
      <path d="M-1144.1887,285.436h-17.6056l-8.8027-15.2467,8.8027-15.2468h17.6056l8.8028,15.2468Zm-16.2006-2.4335h14.7955l7.3978-12.8131-7.3978-12.8133h-14.7955l-7.3976,12.8133Z" transform="translate(1279.1687 -223.4746)" style="fill: #fff"/>
      <path d="M-1217.39,299.466h-17.6056l-8.8027-15.2468,8.8027-15.2467h17.6056l8.8027,15.2467Zm-16.2006-2.4335h14.7955l7.3976-12.8133-7.3976-12.8131h-14.7955l-7.3976,12.8131Z" transform="translate(1279.1687 -223.4746)" style="fill: #fff"/>
      <path d="M-1193.06,313.496h-17.6056l-8.8028-15.2468,8.8028-15.2468h17.6056l8.8027,15.2468Zm-16.2006-2.4335h14.7955l7.3976-12.8133-7.3976-12.8133h-14.7955l-7.3978,12.8133Z" transform="translate(1279.1687 -223.4746)" style="fill: #fff"/>
      <path d="M-1168.5187,299.466h-17.6055l-8.8028-15.2468,8.8028-15.2467h17.6055l8.8028,15.2467Zm-16.2-2.4335h14.7954l7.3978-12.8133-7.3978-12.8131h-14.7954l-7.3978,12.8131Z" transform="translate(1279.1687 -223.4746)" style="fill: #fff"/>
      <path d="M-1144.1887,313.496h-17.6056l-8.8027-15.2468,8.8027-15.2468h17.6056l8.8028,15.2468Zm-16.2006-2.4335h14.7955l7.3978-12.8133-7.3978-12.8133h-14.7955l-7.3976,12.8133Z" transform="translate(1279.1687 -223.4746)" style="fill: #fff"/>
      <path d="M-1217.39,327.526h-17.6056l-8.8027-15.2468,8.8027-15.2468h17.6056l8.8027,15.2468Zm-16.2006-2.4335h14.7955l7.3976-12.8133-7.3976-12.8133h-14.7955l-7.3976,12.8133Z" transform="translate(1279.1687 -223.4746)" style="fill: #fff"/>
      <path d="M-1193.06,341.5561h-17.6056l-8.8028-15.2468,8.8028-15.2468h17.6056l8.8027,15.2468Zm-16.2006-2.4335h14.7955l7.3976-12.8133-7.3976-12.8133h-14.7955l-7.3978,12.8133Z" transform="translate(1279.1687 -223.4746)" style="fill: #fff"/>
      <path d="M-1168.5187,327.526h-17.6055l-8.8028-15.2468,8.8028-15.2468h17.6055l8.8028,15.2468Zm-16.2-2.4335h14.7954l7.3978-12.8133-7.3978-12.8133h-14.7954l-7.3978,12.8133Z" transform="translate(1279.1687 -223.4746)" style="fill: #fff"/>
      <path d="M-1144.1887,341.5561h-17.6056l-8.8027-15.2468,8.8027-15.2468h17.6056l8.8028,15.2468Zm-16.2006-2.4335h14.7955l7.3978-12.8133-7.3978-12.8133h-14.7955l-7.3976,12.8133Z" transform="translate(1279.1687 -223.4746)" style="fill: #fff"/>
    </g>
  </g>
</svg>
