<svg id="b2089337-0978-4c02-95b8-23a616e6859a" data-name="Numbers" xmlns="http://www.w3.org/2000/svg" xmlns:xlink="http://www.w3.org/1999/xlink" width="70.2709mm" height="68.4007mm" viewBox="0 0 199.1932 193.8917">
  <defs>
    <mask id="9527c98d-def3-4295-aecb-6147662299e1" x="-43.404" y="-48.0446" width="272.2681" height="270.5592" maskUnits="userSpaceOnUse"/>
    <mask id="c2b2adef-26b0-40a2-9aac-7ee6a67c5023" x="14.3623" y="-1.1125" width="158.8259" height="158.8606" maskUnits="userSpaceOnUse"/>
  </defs>
  <title>bullet_ergo</title>
  <g style="mask: url(#9527c98d-def3-4295-aecb-6147662299e1)">
    <path id="66657d3b-33eb-49ea-8f63-4887b890a9cf" data-name="Shadow" d="M-1254.2657-260.8056c38.8214-38.8214,101.2458-24.7909,143.5861,17.5494s37.4033,93.42,6.3816,124.4413C-1141.7013-81.4116-1210.33-78.07-1252.67-120.41S-1279.7921-235.2792-1254.2657-260.8056Z" transform="translate(1279.1687 283.5969)" style="opacity: 0.8200000000000001"/>
  </g>
  <path id="fecbeaee-09e4-487e-95ae-b73c91b7fbf3" data-name="Point" d="M-1150.3859-256.3389l43.0054,43.0054-43.0054,43.0053a60.8187,60.8187,0,0,1-86.0107,0,60.8187,60.8187,0,0,1,0-86.0107A60.8187,60.8187,0,0,1-1150.3859-256.3389Z" transform="translate(1279.1687 283.5969)" style="fill: #da231f"/>
  <g style="mask: url(#c2b2adef-26b0-40a2-9aac-7ee6a67c5023)">
    <path id="40f61a63-866d-4f6a-83a3-d50571564d19" data-name="Shadow" d="M-1236.3966-256.3389a60.8187,60.8187,0,0,1,86.0107,0c5.8155,5.8155,15.359,15.3589,23.9816,23.9816a116.5694,116.5694,0,0,1,11.4968,26.5507l-35.4784,35.4784a60.8187,60.8187,0,0,1-86.0107,0A60.8187,60.8187,0,0,1-1236.3966-256.3389Z" transform="translate(1279.1687 283.5969)" style="fill: #58231f"/>
  </g>
  <path id="8d6cb3e3-ab18-49f9-93da-0c3048371b89" data-name="Circle" d="M-1193.3908-165.5674a47.8206,47.8206,0,0,1-47.7664-47.7664,47.82,47.82,0,0,1,47.7664-47.7654,47.8189,47.8189,0,0,1,47.7654,47.7654A47.82,47.82,0,0,1-1193.3908-165.5674Z" transform="translate(1279.1687 283.5969)" style="fill: #da231f"/>
  <g>
    <path d="M-1164.0689-215.1616s1.926-1.9261,1.55-6.1692c0-5.807-6.1836-6.1836-6.1836-6.1836h-9.2585a1.3556,1.3556,0,0,1-1.1731-1.5446c1.1731-2.6985,3.0942-8.11,2.322-11.9763a7.0256,7.0256,0,0,0-7.3374-5.7878,0.8154,0.8154,0,0,0-.7724.7724l-3.8665,10.8032a0.3821,0.3821,0,0,1-.3764.3958l-10.05,10.8081a1.3776,1.3776,0,0,1-1.1489.3958h-0.7722V-196.63h0.7722c2.6985,0,12.3528,7.7332,20.8534,7.7332,8.4863,0,10.4267-1.149,11.9763-3.8667a5.6228,5.6228,0,0,0,.3765-5.0153,5.5465,5.5465,0,0,0,2.3171-3.8667,7.7649,7.7649,0,0,0-.3958-4.2431,6.0877,6.0877,0,0,0,1.9451-4.634c0.3767-3.4707-.7771-4.6389-0.7771-4.6389h0Zm0,0" transform="translate(1279.1687 283.5969)" style="fill: #fff"/>
    <path d="M-1224.312-192.7636h19.3085v-30.8842h-19.3085v30.8842Zm9.6543-13.5209a3.656,3.656,0,0,1,3.8664,3.8667,3.6533,3.6533,0,0,1-3.8664,3.8664,3.6534,3.6534,0,0,1-3.8665-3.8664,3.6561,3.6561,0,0,1,3.8665-3.8667h0Zm0,0" transform="translate(1279.1687 283.5969)" style="fill: #fff"/>
  </g>
</svg>
