<svg id="d95ed949-c5d9-49b9-aaac-dcc2327921d6" data-name="Numbers" xmlns="http://www.w3.org/2000/svg" xmlns:xlink="http://www.w3.org/1999/xlink" width="199.1932" height="193.8917" viewBox="0 0 199.1932 193.8917">
  <defs>
    <mask id="dec6f2a8-8dc9-40dd-9efa-a85a46f18810" x="-43.404" y="-48.0446" width="272.2681" height="270.5592" maskUnits="userSpaceOnUse"/>
    <mask id="d1542e2d-c6a9-4f67-a733-39e7e1e098ff" x="14.3623" y="-1.1125" width="158.8259" height="158.8606" maskUnits="userSpaceOnUse"/>
  </defs>
  <title>bullet_3</title>
  <g style="mask: url(#dec6f2a8-8dc9-40dd-9efa-a85a46f18810)">
    <g id="040c3971-cbec-492e-87ca-91b8d70c76f0" data-name="Shadow" style="opacity: 0.8200000000000001">
      <path d="M-1254.2657-898.7628c38.8214-38.8214,101.2458-24.7909,143.5861,17.5494s37.4033,93.42,6.3816,124.4413c-37.4033,37.4033-106.0322,40.7448-148.3723-1.5954S-1279.7921-873.2364-1254.2657-898.7628Z" transform="translate(1279.1687 921.554)"/>
    </g>
  </g>
  <g id="88c582d3-3ea7-4ac0-bf6c-e5dc2f4a3e24" data-name="Point">
    <path d="M-1150.3859-894.2961l43.0054,43.0054-43.0054,43.0053a60.8187,60.8187,0,0,1-86.0107,0,60.8187,60.8187,0,0,1,0-86.0107A60.8187,60.8187,0,0,1-1150.3859-894.2961Z" transform="translate(1279.1687 921.554)" style="fill: #2bccd8"/>
  </g>
  <g style="mask: url(#d1542e2d-c6a9-4f67-a733-39e7e1e098ff)">
    <g id="fad32f4f-67cb-407d-a285-63ba1a6b5726" data-name="Shadow">
      <path d="M-1236.3966-894.2961a60.8187,60.8187,0,0,1,86.0107,0c5.8155,5.8155,15.359,15.3589,23.9816,23.9816a116.5694,116.5694,0,0,1,11.4968,26.5507l-35.4784,35.4784a60.8187,60.8187,0,0,1-86.0107,0A60.8187,60.8187,0,0,1-1236.3966-894.2961Z" transform="translate(1279.1687 921.554)" style="fill: #004243"/>
    </g>
  </g>
  <g id="969e4ae5-840a-4ba4-a227-e521f1a4646d" data-name="Circle">
    <path d="M-1193.3908-803.5246a47.8206,47.8206,0,0,1-47.7664-47.7664,47.82,47.82,0,0,1,47.7664-47.7654,47.8189,47.8189,0,0,1,47.7654,47.7654A47.82,47.82,0,0,1-1193.3908-803.5246Z" transform="translate(1279.1687 921.554)" style="fill: #2bccd8"/>
  </g>
  <path d="M-1208.1753-835.4321v-4.874h8.8931v5.3018c0,4.2754,1.8813,5.9,4.874,5.9s4.874-1.4536,4.874-6.7554v-4.874c0-5.5581-1.8809-7.61-6.1567-7.61h-3.1636v-8.5513h3.42c3.5059,0,5.6436-1.5391,5.6436-6.3276v-4.3608c0-4.2759-1.9668-5.9858-4.7031-5.9858s-4.5322,1.6245-4.5322,5.5581v3.9336h-8.8926v-3.1641c0-9.5771,4.7881-14.8789,13.7671-14.8789s13.7671,5.2163,13.7671,14.7935v2.1377c0,6.4131-2.0522,10.3467-6.67,12.0571v0.1709c5.0449,1.8813,6.9263,6.2422,6.9263,12.3135v5.3018c0,9.5771-4.7886,14.793-14.0234,14.793S-1208.1753-825.855-1208.1753-835.4321Z" transform="translate(1279.1687 921.554)" style="fill: #fff"/>
</svg>
