<svg id="faceb8e9-a602-41c4-bf2e-8de3e57ec431" data-name="Numbers" xmlns="http://www.w3.org/2000/svg" xmlns:xlink="http://www.w3.org/1999/xlink" width="199.1932" height="193.8917" viewBox="0 0 199.1932 193.8917">
  <defs>
    <mask id="e69caae7-a958-47f0-bf88-421941a3b87e" x="-43.404" y="-48.0446" width="272.2681" height="270.5592" maskUnits="userSpaceOnUse"/>
    <mask id="ee2f6931-7f67-4fef-9c3a-6c8f4b1fd037" x="14.3623" y="-1.1125" width="158.8259" height="158.8606" maskUnits="userSpaceOnUse"/>
  </defs>
  <title>bullet_2</title>
  <g style="mask: url(#e69caae7-a958-47f0-bf88-421941a3b87e)">
    <path id="6bb01bb5-51d7-480f-ad2f-b33f140d1b8c" data-name="Shadow" d="M-1254.2657-517.7818c38.8214-38.8214,101.2458-24.7909,143.5861,17.5494s37.4033,93.42,6.3816,124.4413c-37.4033,37.4033-106.0322,40.7448-148.3723-1.5954S-1279.7921-492.2554-1254.2657-517.7818Z" transform="translate(1279.1687 540.5731)" style="opacity: 0.8200000000000001"/>
  </g>
  <path id="37796fd0-bc40-49ba-8b7f-8309d8a10d54" data-name="Point" d="M-1150.3859-513.3151L-1107.38-470.31l-43.0054,43.0053a60.8187,60.8187,0,0,1-86.0107,0,60.8187,60.8187,0,0,1,0-86.0107A60.8187,60.8187,0,0,1-1150.3859-513.3151Z" transform="translate(1279.1687 540.5731)" style="fill: #009443"/>
  <g style="mask: url(#ee2f6931-7f67-4fef-9c3a-6c8f4b1fd037)">
    <path id="2063daab-e3bf-4923-a3d8-c26e8614535a" data-name="Shadow" d="M-1236.3966-513.3151a60.8187,60.8187,0,0,1,86.0107,0c5.8155,5.8155,15.359,15.3589,23.9816,23.9816a116.5694,116.5694,0,0,1,11.4968,26.5507l-35.4784,35.4784a60.8187,60.8187,0,0,1-86.0107,0A60.8187,60.8187,0,0,1-1236.3966-513.3151Z" transform="translate(1279.1687 540.5731)" style="fill: #004243"/>
  </g>
  <path id="679143ed-38a8-4ad1-8811-91127171d298" data-name="Circle" d="M-1193.3908-422.5436a47.8206,47.8206,0,0,1-47.7664-47.7664,47.82,47.82,0,0,1,47.7664-47.7654,47.8189,47.8189,0,0,1,47.7654,47.7654A47.82,47.82,0,0,1-1193.3908-422.5436Z" transform="translate(1279.1687 540.5731)" style="fill: #009443"/>
  <path d="M-1207.9824-440.4272v-4.6177l5.9-5.729c14.1948-13.5107,20.6079-20.6934,20.6938-29.0737,0-5.6436-2.7363-10.8594-11.0312-10.8594-5.0449,0-9.2349,2.5649-11.8,4.7026l-2.394-5.3013a24.3867,24.3867,0,0,1,15.7339-5.644c11.9712,0,17.0161,8.209,17.0161,16.1616,0,10.2612-7.439,18.5557-19.1543,29.8433l-4.4463,4.1045v0.1709h24.9688v6.2422h-35.4863Z" transform="translate(1279.1687 540.5731)" style="fill: #fff"/>
</svg>
