<svg id="01b0c09a-c1d9-4d40-90ce-9860bc892148" data-name="Numbers" xmlns="http://www.w3.org/2000/svg" xmlns:xlink="http://www.w3.org/1999/xlink" width="199.1932" height="193.8917" viewBox="0 0 199.1932 193.8917">
  <defs>
    <mask id="4eda649b-90e8-4f97-9c63-cd1168b9eef4" x="-43.404" y="-48.0446" width="272.2681" height="270.5592" maskUnits="userSpaceOnUse"/>
    <mask id="1f42bf5b-8418-4543-a9a7-40dc073defd3" x="14.3623" y="-1.1125" width="158.8259" height="158.8606" maskUnits="userSpaceOnUse"/>
  </defs>
  <title>bullet_1</title>
  <g style="mask: url(#4eda649b-90e8-4f97-9c63-cd1168b9eef4)">
    <g id="e8b5d329-57b2-4bab-a4e2-a9e95928ce41" data-name="Shadow" style="opacity: 0.8200000000000001">
      <path d="M-1254.2657-260.8056c38.8214-38.8214,101.2458-24.7909,143.5861,17.5494s37.4033,93.42,6.3816,124.4413C-1141.7013-81.4116-1210.33-78.07-1252.67-120.41S-1279.7921-235.2792-1254.2657-260.8056Z" transform="translate(1279.1687 283.5969)"/>
    </g>
  </g>
  <g id="ad523b4a-5f59-4fd5-ab31-fb24275421bf" data-name="Point">
    <path d="M-1150.3859-256.3389l43.0054,43.0054-43.0054,43.0053a60.8187,60.8187,0,0,1-86.0107,0,60.8187,60.8187,0,0,1,0-86.0107A60.8187,60.8187,0,0,1-1150.3859-256.3389Z" transform="translate(1279.1687 283.5969)" style="fill: #da231f"/>
  </g>
  <g style="mask: url(#1f42bf5b-8418-4543-a9a7-40dc073defd3)">
    <g id="be90567c-9c43-4296-9f07-3277eaa21754" data-name="Shadow">
      <path d="M-1236.3966-256.3389a60.8187,60.8187,0,0,1,86.0107,0c5.8155,5.8155,15.359,15.3589,23.9816,23.9816a116.5694,116.5694,0,0,1,11.4968,26.5507l-35.4784,35.4784a60.8187,60.8187,0,0,1-86.0107,0A60.8187,60.8187,0,0,1-1236.3966-256.3389Z" transform="translate(1279.1687 283.5969)" style="fill: #58231f"/>
    </g>
  </g>
  <g id="10d1236c-d14f-4a14-80e3-70e5da4f93cb" data-name="Circle">
    <path d="M-1193.3908-165.5674a47.8206,47.8206,0,0,1-47.7664-47.7664,47.82,47.82,0,0,1,47.7664-47.7654,47.8189,47.8189,0,0,1,47.7654,47.7654A47.82,47.82,0,0,1-1193.3908-165.5674Z" transform="translate(1279.1687 283.5969)" style="fill: #da231f"/>
  </g>
  <path d="M-1197.1562-230.2178h-9.8335v-6.67c7.9526,0,10.7744-1.71,12.9121-7.5244h6.3276v59.8569h-9.4062v-45.6626Z" transform="translate(1279.1687 283.5969)" style="fill: #fff"/>
</svg>
